SplineFontDB: 3.2
FontName: Consolig-Regular
FullName: Consolig Regular
FamilyName: Consolig
Weight: Regular
Copyright: (c) 2019 Schism Studios
Version: 1.0
ItalicAngle: 0
UnderlinePosition: -266
UnderlineWidth: 144
Ascent: 1521
Descent: 527
InvalidEm: 0
UFOAscent: 1521
UFODescent: -527
LayerCount: 2
Layer: 0 0 "Back" 1
Layer: 1 0 "public.default" 0 "glyphs"
StyleMap: 0x0040
FSType: 8
OS2Version: 0
OS2_WeightWidthSlopeOnly: 0
OS2_UseTypoMetrics: 0
CreationTime: 1575066624
ModificationTime: 1575078772
PfmFamily: 16
TTFWeight: 400
TTFWidth: 5
LineGap: 350
VLineGap: 0
Panose: 2 11 6 9 2 2 4 3 2 4
OS2TypoAscent: 1521
OS2TypoAOffset: 0
OS2TypoDescent: -527
OS2TypoDOffset: 0
OS2TypoLinegap: 350
OS2WinAscent: 1884
OS2WinAOffset: 0
OS2WinDescent: 514
OS2WinDOffset: 0
HheadAscent: 1521
HheadAOffset: 0
HheadDescent: -527
HheadDOffset: 0
OS2SubXSize: 1434
OS2SubYSize: 1331
OS2SubXOff: 0
OS2SubYOff: 287
OS2SupXSize: 1434
OS2SupYSize: 1331
OS2SupXOff: 0
OS2SupYOff: 977
OS2StrikeYSize: 102
OS2StrikeYPos: 512
OS2CapHeight: 1307
OS2XHeight: 1004
OS2Vendor: 'SS  '
OS2CodePages: 6000019f.dfd70000
OS2UnicodeRanges: e00006ff.0000fcff.00000001.00000000
DEI: 91125
LangName: 1033 "+AKkA 2019 Schism Studios" "" "" "Schism: Consolig" "" "Version 1.00" "" "Consolig is not trademarked. It is a not-so-clever combination of two other words, one of which is a trademark of Microsoft." "Schism Studios" "Josh Jones" "" "http://www.schism.co" "http://josh-jones.com" "SIL OPEN FONT LICENSE (OFL-1.1)" "https://opensource.org/licenses/OFL-1.1"
PickledDataWithLists: "(dp0
Vpublic.glyphOrder
p1
(lp2
Vhyphen_hyphen_greater.liga
p3
aVLIG
p4
as."
Encoding: Custom
UnicodeInterp: none
NameList: AGL For New Fonts
DisplaySize: -96
AntiAlias: 1
FitToEm: 0
WinInfo: 0 16 6
BeginChars: 174 174

StartChar: ampersand_ampersand.liga
Encoding: 0 -1 0
GlifName: ampersand_ampersand.liga
Width: 1126
VWidth: 0
Flags: HW
LayerCount: 2
Fore
SplineSet
762 0 m 261
 994 0 l 261
 442 870 l 262
 396 942 354 1024 354 1100 c 260
 354 1200 406 1256 494 1256 c 261
 490 1440 l 261
 264 1440 134 1316 134 1102 c 260
 134 992 208 868 298 726 c 262
 762 0 l 261
-648 -20 m 260
 -294 -20 -118 240 -118 766 c 261
 -300 766 l 261
 -300 356 -408 154 -624 154 c 260
 -750 154 -812 220 -812 354 c 260
 -812 492 -744 578 -604 616 c 261
 -714 738 l 261
 -914 700 -1014 570 -1014 344 c 260
 -1014 100 -892 -20 -648 -20 c 260
-258 0 m 261
 -26 0 l 261
 -578 870 l 262
 -626 946 -666 1026 -666 1100 c 260
 -666 1200 -614 1256 -526 1256 c 261
 -530 1440 l 261
 -756 1440 -886 1316 -886 1102 c 260
 -886 1000 -814 870 -722 726 c 262
 -258 0 l 261
372 -20 m 260
 736 -20 902 240 902 766 c 261
 720 766 l 261
 720 358 612 154 396 154 c 260
 270 154 208 220 208 354 c 260
 208 492 276 578 416 616 c 261
 306 738 l 261
 106 700 6 570 6 344 c 260
 6 100 128 -20 372 -20 c 260
-384 1122 m 261
 -170 1122 l 261
 -170 1324 -302 1440 -530 1440 c 261
 -526 1256 l 261
 -436 1256 -384 1208 -384 1122 c 261
636 1122 m 261
 850 1122 l 261
 850 1334 730 1440 490 1440 c 261
 494 1256 l 261
 584 1256 636 1208 636 1122 c 261
EndSplineSet
PickledDataWithLists: "(dp0
Vcom.schriftgestaltung.Glyphs.lastChange
p1
V2019/11/18 23:07:02
p2
s."
EndChar

StartChar: asciicircum_equal.liga
Encoding: 1 -1 1
GlifName: asciicircum_equal.liga
Width: 1126
VWidth: 0
Flags: HW
LayerCount: 2
Fore
SplineSet
-980 658 m 257
 -760 658 l 257
 -534 1260 l 257
 -516 1260 l 257
 -364 866 l 257
 -144 866 l 257
 -390 1420 l 257
 -660 1420 l 257
 -980 658 l 257
-64 366 m 257
 920 366 l 257
 920 552 l 257
 -64 552 l 257
 -64 366 l 257
-364 866 m 257
 920 866 l 257
 920 1052 l 257
 -364 1052 l 257
 -364 866 l 257
EndSplineSet
PickledDataWithLists: "(dp0
Vcom.schriftgestaltung.Glyphs.lastChange
p1
V2019/11/18 23:05:38
p2
s."
EndChar

StartChar: asciitilde_asciitilde.liga
Encoding: 2 -1 2
GlifName: asciitilde_asciitilde.liga
Width: 1126
VWidth: 0
Flags: HW
LayerCount: 2
Fore
SplineSet
-920 446 m 257
 -716 446 l 257
 -716 476 l 258
 -716 586 -662 640 -556 640 c 256
 -430 640 -294 560 -180 560 c 256
 6 560 50 740 204 740 c 256
 342 740 482 660 620 660 c 256
 822 660 920 772 920 1000 c 258
 920 1050 l 257
 718 1050 l 257
 718 1020 l 258
 718 910 670 856 578 856 c 256
 464 856 376 936 220 936 c 256
 6 936 18 744 -182 744 c 256
 -350 744 -448 836 -600 836 c 256
 -814 836 -920 724 -920 496 c 258
 -920 446 l 257
EndSplineSet
PickledDataWithLists: "(dp0
Vcom.schriftgestaltung.Glyphs.lastChange
p1
V2019/11/18 23:05:38
p2
s."
EndChar

StartChar: asciitilde_at.liga
Encoding: 3 -1 3
GlifName: asciitilde_at.liga
Width: 1126
VWidth: 0
Flags: HW
LayerCount: 2
Fore
SplineSet
-960 446 m 257
 -756 446 l 257
 -756 476 l 258
 -756 586 -716 640 -636 640 c 256
 -490 640 -342 580 -196 580 c 256
 -94 580 -18 652 16 800 c 256
 94 1140 202 1270 508 1270 c 256
 666 1270 748 1160 748 938 c 258
 748 654 l 257
 920 654 l 257
 920 944 l 258
 920 1276 782 1440 508 1440 c 256
 172 1440 -44 1254 -114 970 c 256
 -148 832 -180 776 -240 776 c 256
 -394 776 -546 836 -700 836 c 256
 -874 836 -960 724 -960 496 c 258
 -960 446 l 257
522 -20 m 256
 642 -20 732 2 790 40 c 257
 770 220 l 257
 716 182 634 160 522 160 c 256
 250 160 114 316 114 622 c 257
 68 572 12 538 -56 518 c 257
 -14 160 180 -20 522 -20 c 256
524 278 m 256
 634 278 712 362 736 510 c 257
 810 510 l 257
 810 908 l 257
 736 908 l 257
 706 1056 628 1140 526 1140 c 256
 346 1140 244 996 244 700 c 256
 244 432 346 278 524 278 c 256
582 468 m 256
 482 468 424 552 424 700 c 256
 424 874 486 950 596 950 c 256
 694 950 748 874 748 700 c 256
 748 552 688 468 582 468 c 256
748 298 m 257
 920 298 l 257
 920 820 l 257
 748 820 l 257
 748 298 l 257
EndSplineSet
PickledDataWithLists: "(dp0
Vcom.schriftgestaltung.Glyphs.lastChange
p1
V2019/11/18 23:07:02
p2
s."
EndChar

StartChar: asciitilde_equal.liga
Encoding: 4 -1 4
GlifName: asciitilde_equal.liga
Width: 1126
VWidth: 0
Flags: HW
LayerCount: 2
Fore
SplineSet
-700 686 m 257
 -496 686 l 257
 -496 716 l 258
 -496 839 -429 900 -296 900 c 256
 -68 900 102 770 330 770 c 256
 579 770 700 898 700 1160 c 258
 700 1210 l 257
 498 1210 l 257
 498 1180 l 258
 498 1043 440 976 328 976 c 256
 102 976 -64 1106 -290 1106 c 256
 -565 1106 -700 984 -700 736 c 258
 -700 686 l 257
-700 366 m 257
 700 366 l 257
 700 552 l 257
 -700 552 l 257
 -700 366 l 257
EndSplineSet
PickledDataWithLists: "(dp0
Vcom.schriftgestaltung.Glyphs.lastChange
p1
V2019/11/18 23:05:38
p2
s."
EndChar

StartChar: asciitilde_greater.liga
Encoding: 5 -1 5
GlifName: asciitilde_greater.liga
Width: 1126
VWidth: 0
Flags: HW
LayerCount: 2
Fore
SplineSet
6 112 m 257
 960 648 l 257
 960 770 l 257
 6 1304 l 257
 6 1064 l 257
 438 876 534 850 588 846 c 257
 588 570 l 257
 538 566 450 526 6 352 c 257
 6 112 l 257
-236 556 m 256
 16 556 30 674 260 674 c 256
 398 674 464 614 600 614 c 257
 600 802 l 257
 500 802 424 862 256 862 c 256
 28 862 -28 744 -218 744 c 256
 -462 744 -418 862 -640 862 c 256
 -770 862 -866 824 -932 748 c 257
 -836 604 l 257
 -794 650 -728 674 -638 674 c 256
 -484 674 -450 556 -236 556 c 256
EndSplineSet
PickledDataWithLists: "(dp0
Vcom.schriftgestaltung.Glyphs.lastChange
p1
V2019/11/18 23:07:02
p2
s."
EndChar

StartChar: asciitilde_hyphen.liga
Encoding: 6 -1 6
GlifName: asciitilde_hyphen.liga
Width: 1126
VWidth: 0
Flags: HW
LayerCount: 2
Fore
SplineSet
-1000 440 m 257
 -798 440 l 257
 -798 490 l 258
 -798 606 -762 674 -698 674 c 256
 -546 674 -392 454 -240 454 c 256
 -48 454 62 558 62 742 c 258
 62 792 l 257
 -142 792 l 257
 -142 762 l 258
 -142 704 -180 670 -244 670 c 256
 -402 670 -562 870 -720 870 c 256
 -898 870 -1000 738 -1000 510 c 258
 -1000 440 l 257
-140 606 m 257
 920 606 l 257
 920 792 l 257
 -140 792 l 257
 -140 606 l 257
EndSplineSet
PickledDataWithLists: "(dp0
Vcom.schriftgestaltung.Glyphs.lastChange
p1
V2019/11/18 23:05:38
p2
s."
EndChar

StartChar: asterisk_asterisk.liga
Encoding: 7 -1 7
GlifName: asterisk_asterisk.liga
Width: 1126
VWidth: 0
Flags: HW
LayerCount: 2
Fore
SplineSet
766 258 m 257
 932 398 l 257
 596 744 l 257
 484 648 l 257
 766 258 l 257
314 258 m 257
 596 648 l 257
 484 744 l 257
 148 398 l 257
 314 258 l 257
514 626 m 257
 566 766 l 257
 126 962 l 257
 52 758 l 257
 514 626 l 257
466 696 m 257
 614 696 l 257
 648 1176 l 257
 432 1176 l 257
 466 696 l 257
566 626 m 257
 1028 758 l 257
 954 962 l 257
 514 766 l 257
 566 626 l 257
-314 258 m 257
 -148 398 l 257
 -484 744 l 257
 -596 648 l 257
 -314 258 l 257
-766 258 m 257
 -484 648 l 257
 -596 744 l 257
 -932 398 l 257
 -766 258 l 257
-566 626 m 257
 -514 766 l 257
 -954 962 l 257
 -1028 758 l 257
 -566 626 l 257
-614 696 m 257
 -466 696 l 257
 -432 1176 l 257
 -648 1176 l 257
 -614 696 l 257
-514 626 m 257
 -52 758 l 257
 -126 962 l 257
 -566 766 l 257
 -514 626 l 257
EndSplineSet
PickledDataWithLists: "(dp0
Vcom.schriftgestaltung.Glyphs.lastChange
p1
V2019/11/18 23:05:38
p2
s."
EndChar

StartChar: asterisk_asterisk_asterisk.liga
Encoding: 8 -1 8
GlifName: asterisk_asterisk_asterisk.liga
Width: 1126
VWidth: 0
Flags: HW
LayerCount: 2
Fore
SplineSet
-366 558 m 257
 -200 698 l 257
 -536 1044 l 257
 -648 948 l 257
 -366 558 l 257
-818 558 m 257
 -536 948 l 257
 -648 1044 l 257
 -984 698 l 257
 -818 558 l 257
-618 926 m 257
 -566 1066 l 257
 -1006 1262 l 257
 -1080 1058 l 257
 -618 926 l 257
-666 996 m 257
 -518 996 l 257
 -484 1476 l 257
 -700 1476 l 257
 -666 996 l 257
-566 926 m 257
 -104 1058 l 257
 -178 1262 l 257
 -618 1066 l 257
 -566 926 l 257
-1514 258 m 257
 -1348 398 l 257
 -1684 744 l 257
 -1796 648 l 257
 -1514 258 l 257
-1966 258 m 257
 -1684 648 l 257
 -1796 744 l 257
 -2132 398 l 257
 -1966 258 l 257
-1766 626 m 257
 -1714 766 l 257
 -2154 962 l 257
 -2228 758 l 257
 -1766 626 l 257
-1814 696 m 257
 -1666 696 l 257
 -1632 1176 l 257
 -1848 1176 l 257
 -1814 696 l 257
-1714 626 m 257
 -1252 758 l 257
 -1326 962 l 257
 -1766 766 l 257
 -1714 626 l 257
766 258 m 257
 932 398 l 257
 596 744 l 257
 484 648 l 257
 766 258 l 257
314 258 m 257
 596 648 l 257
 484 744 l 257
 148 398 l 257
 314 258 l 257
514 626 m 257
 566 766 l 257
 126 962 l 257
 52 758 l 257
 514 626 l 257
466 696 m 257
 614 696 l 257
 648 1176 l 257
 432 1176 l 257
 466 696 l 257
566 626 m 257
 1028 758 l 257
 954 962 l 257
 514 766 l 257
 566 626 l 257
EndSplineSet
PickledDataWithLists: "(dp0
Vcom.schriftgestaltung.Glyphs.lastChange
p1
V2019/11/18 23:05:38
p2
s."
EndChar

StartChar: asterisk_greater.liga
Encoding: 9 -1 9
GlifName: asterisk_greater.liga
Width: 1126
VWidth: 0
Flags: HW
LayerCount: 2
Fore
SplineSet
48 214 m 257
 1006 608 l 257
 1006 810 l 257
 48 1204 l 257
 48 984 l 257
 748 718 l 257
 748 700 l 257
 48 434 l 257
 48 214 l 257
-314 258 m 257
 -148 398 l 257
 -484 744 l 257
 -596 648 l 257
 -314 258 l 257
-766 258 m 257
 -484 648 l 257
 -596 744 l 257
 -932 398 l 257
 -766 258 l 257
-566 626 m 257
 -514 766 l 257
 -954 962 l 257
 -1028 758 l 257
 -566 626 l 257
-614 696 m 257
 -466 696 l 257
 -432 1176 l 257
 -648 1176 l 257
 -614 696 l 257
-514 626 m 257
 -52 758 l 257
 -126 962 l 257
 -566 766 l 257
 -514 626 l 257
EndSplineSet
PickledDataWithLists: "(dp0
Vcom.schriftgestaltung.Glyphs.lastChange
p1
V2019/11/18 23:05:38
p2
s."
EndChar

StartChar: asterisk_slash.liga
Encoding: 10 -1 10
GlifName: asterisk_slash.liga
Width: 1126
VWidth: 0
Flags: HW
LayerCount: 2
Fore
SplineSet
46 -190 m 257
 258 -190 l 257
 1062 1610 l 257
 850 1610 l 257
 46 -190 l 257
-314 258 m 257
 -148 398 l 257
 -484 744 l 257
 -596 648 l 257
 -314 258 l 257
-766 258 m 257
 -484 648 l 257
 -596 744 l 257
 -932 398 l 257
 -766 258 l 257
-566 626 m 257
 -514 766 l 257
 -954 962 l 257
 -1028 758 l 257
 -566 626 l 257
-614 696 m 257
 -466 696 l 257
 -432 1176 l 257
 -648 1176 l 257
 -614 696 l 257
-514 626 m 257
 -52 758 l 257
 -126 962 l 257
 -566 766 l 257
 -514 626 l 257
EndSplineSet
PickledDataWithLists: "(dp0
Vcom.schriftgestaltung.Glyphs.lastChange
p1
V2019/11/18 23:05:38
p2
s."
EndChar

StartChar: bar_bar.liga
Encoding: 11 -1 11
GlifName: bar_bar.liga
Width: 1126
VWidth: 0
Flags: HW
LayerCount: 2
Fore
SplineSet
-570 -310 m 257
 -370 -310 l 257
 -370 1730 l 257
 -570 1730 l 257
 -570 -310 l 257
370 -310 m 257
 570 -310 l 257
 570 1730 l 257
 370 1730 l 257
 370 -310 l 257
EndSplineSet
PickledDataWithLists: "(dp0
Vcom.schriftgestaltung.Glyphs.lastChange
p1
V2019/11/18 23:05:38
p2
s."
EndChar

StartChar: bar_bar_bar_greater.liga
Encoding: 12 -1 12
GlifName: bar_bar_bar_greater.liga
Width: 1126
VWidth: 0
Flags: HW
LayerCount: 2
Fore
SplineSet
-1744 -310 m 257
 -1544 -310 l 257
 -1544 1730 l 257
 -1744 1730 l 257
 -1744 -310 l 257
-2744 -310 m 257
 -2544 -310 l 257
 -2544 1730 l 257
 -2744 1730 l 257
 -2744 -310 l 257
-804 -10 m 257
 700 608 l 257
 700 810 l 257
 -804 1430 l 257
 -804 1190 l 257
 442 718 l 257
 442 700 l 257
 -804 230 l 257
 -804 -10 l 257
-804 -10 m 257
 -604 90 l 257
 -604 1330 l 257
 -804 1430 l 257
 -804 -10 l 257
EndSplineSet
PickledDataWithLists: "(dp0
Vcom.schriftgestaltung.Glyphs.lastChange
p1
V2019/11/18 23:05:38
p2
s."
EndChar

StartChar: bar_bar_equal.liga
Encoding: 13 -1 13
GlifName: bar_bar_equal.liga
Width: 1126
VWidth: 0
Flags: HW
LayerCount: 2
Fore
SplineSet
-1680 -310 m 257
 -1480 -310 l 257
 -1480 1730 l 257
 -1680 1730 l 257
 -1680 -310 l 257
-700 -310 m 257
 -900 -310 l 257
 -900 1730 l 257
 -700 1730 l 257
 -700 -310 l 257
-760 866 m 257
 920 866 l 257
 920 1052 l 257
 -760 1052 l 257
 -760 866 l 257
-760 366 m 257
 920 366 l 257
 920 552 l 257
 -760 552 l 257
 -760 366 l 257
EndSplineSet
PickledDataWithLists: "(dp0
Vcom.schriftgestaltung.Glyphs.lastChange
p1
V2019/11/18 23:05:38
p2
s."
EndChar

StartChar: bar_bar_greater.liga
Encoding: 14 -1 14
GlifName: bar_bar_greater.liga
Width: 1126
VWidth: 0
Flags: HW
LayerCount: 2
Fore
SplineSet
-1440 -310 m 257
 -1640 -310 l 257
 -1640 1730 l 257
 -1440 1730 l 257
 -1440 -310 l 257
-849 -10 m 257
 655 608 l 257
 655 810 l 257
 -849 1430 l 257
 -849 1190 l 257
 397 718 l 257
 397 700 l 257
 -849 230 l 257
 -849 -10 l 257
-849 -10 m 257
 -649 90 l 257
 -649 1330 l 257
 -849 1430 l 257
 -849 -10 l 257
EndSplineSet
PickledDataWithLists: "(dp0
Vcom.schriftgestaltung.Glyphs.lastChange
p1
V2019/11/18 23:05:38
p2
s."
EndChar

StartChar: bar_braceright.liga
Encoding: 15 -1 15
GlifName: bar_braceright.liga
Width: 1126
VWidth: 0
Flags: HW
LayerCount: 2
Fore
SplineSet
-500 -310 m 257
 -700 -310 l 257
 -700 1730 l 257
 -500 1730 l 257
 -500 -310 l 257
290 -214 m 256
 570 -214 732 -56 732 216 c 256
 732 308 730 396 730 492 c 256
 730 604 878 636 960 636 c 257
 960 794 l 257
 882 794 730 846 730 938 c 256
 730 1038 732 1122 732 1214 c 256
 732 1477 570 1626 290 1626 c 256
 166 1626 64 1618 20 1606 c 257
 44 1436 l 257
 128 1442 206 1446 272 1446 c 256
 432 1446 518 1361 518 1214 c 256
 518 1119 512 1037 512 942 c 256
 512 810 594 735 734 732 c 257
 734 698 l 257
 594 695 512 615 512 488 c 256
 512 389 518 307 518 216 c 256
 518 57 432 -34 272 -34 c 256
 206 -34 128 -30 44 -24 c 257
 20 -194 l 257
 90 -206 166 -214 290 -214 c 256
EndSplineSet
PickledDataWithLists: "(dp0
Vcom.schriftgestaltung.Glyphs.lastChange
p1
V2019/11/18 23:07:02
p2
s."
EndChar

StartChar: bar_bracketright.liga
Encoding: 16 -1 16
GlifName: bar_bracketright.liga
Width: 1126
VWidth: 0
Flags: HW
LayerCount: 2
Fore
SplineSet
-654 -310 m 257
 -454 -310 l 257
 -454 1730 l 257
 -654 1730 l 257
 -654 -310 l 257
452 -200 m 257
 654 -200 l 257
 654 1620 l 257
 452 1620 l 257
 452 -200 l 257
-114 -200 m 257
 472 -200 l 257
 472 -24 l 257
 -114 -24 l 257
 -114 -200 l 257
-114 1444 m 257
 472 1444 l 257
 472 1620 l 257
 -114 1620 l 257
 -114 1444 l 257
EndSplineSet
PickledDataWithLists: "(dp0
Vcom.schriftgestaltung.Glyphs.lastChange
p1
V2019/11/18 23:05:38
p2
s."
EndChar

StartChar: bar_equal.liga
Encoding: 17 -1 17
GlifName: bar_equal.liga
Width: 1126
VWidth: 0
Flags: HW
LayerCount: 2
Fore
SplineSet
-546 -310 m 257
 -746 -310 l 257
 -746 1730 l 257
 -546 1730 l 257
 -546 -310 l 257
-680 866 m 257
 920 866 l 257
 920 1052 l 257
 -680 1052 l 257
 -680 866 l 257
-680 366 m 257
 920 366 l 257
 920 552 l 257
 -680 552 l 257
 -680 366 l 257
EndSplineSet
PickledDataWithLists: "(dp0
Vcom.schriftgestaltung.Glyphs.lastChange
p1
V2019/11/18 23:05:38
p2
s."
EndChar

StartChar: bar_greater.liga
Encoding: 18 -1 18
GlifName: bar_greater.liga
Width: 1126
VWidth: 0
Flags: HW
LayerCount: 2
Fore
SplineSet
-659 -10 m 257
 845 608 l 257
 845 810 l 257
 -659 1430 l 257
 -659 1190 l 257
 587 718 l 257
 587 700 l 257
 -659 230 l 257
 -659 -10 l 257
-659 -10 m 257
 -459 90 l 257
 -459 1330 l 257
 -659 1430 l 257
 -659 -10 l 257
EndSplineSet
PickledDataWithLists: "(dp0
Vcom.schriftgestaltung.Glyphs.lastChange
p1
V2019/11/18 23:05:38
p2
s."
EndChar

StartChar: bar_hyphen.liga
Encoding: 19 -1 19
GlifName: bar_hyphen.liga
Width: 1126
VWidth: 0
Flags: HW
LayerCount: 2
Fore
SplineSet
-546 -310 m 257
 -746 -310 l 257
 -746 1730 l 257
 -546 1730 l 257
 -546 -310 l 257
-720 616 m 257
 920 616 l 257
 920 802 l 257
 -720 802 l 257
 -720 616 l 257
EndSplineSet
PickledDataWithLists: "(dp0
Vcom.schriftgestaltung.Glyphs.lastChange
p1
V2019/11/18 23:05:38
p2
s."
EndChar

StartChar: braceleft_bar.liga
Encoding: 20 -1 20
GlifName: braceleft_bar.liga
Width: 1126
VWidth: 0
Flags: HW
LayerCount: 2
Fore
SplineSet
500 -310 m 257
 700 -310 l 257
 700 1730 l 257
 500 1730 l 257
 500 -310 l 257
-290 -214 m 256
 -166 -214 -90 -206 -20 -194 c 257
 -44 -24 l 257
 -128 -30 -206 -34 -272 -34 c 256
 -432 -34 -518 57 -518 216 c 256
 -518 307 -512 389 -512 488 c 256
 -512 615 -594 695 -734 698 c 257
 -734 732 l 257
 -594 735 -512 810 -512 942 c 256
 -512 1037 -518 1119 -518 1214 c 256
 -518 1361 -432 1446 -272 1446 c 256
 -206 1446 -128 1442 -44 1436 c 257
 -20 1606 l 257
 -64 1618 -166 1626 -290 1626 c 256
 -570 1626 -732 1477 -732 1214 c 256
 -732 1122 -730 1038 -730 938 c 256
 -730 846 -882 794 -960 794 c 257
 -960 636 l 257
 -878 636 -730 604 -730 492 c 256
 -730 396 -732 308 -732 216 c 256
 -732 -56 -570 -214 -290 -214 c 256
EndSplineSet
PickledDataWithLists: "(dp0
Vcom.schriftgestaltung.Glyphs.lastChange
p1
V2019/11/18 23:07:02
p2
s."
EndChar

StartChar: braceright_numbersign.liga
Encoding: 21 -1 21
GlifName: braceright_numbersign.liga
Width: 1126
VWidth: 0
Flags: HW
LayerCount: 2
Fore
SplineSet
-788 -214 m 256
 -571 -214 -446 -78 -446 156 c 256
 -446 225 -447 292 -447 360 c 257
 920 360 l 257
 920 530 l 257
 -448 530 l 257
 -441 636 -298 666 -218 666 c 257
 -218 764 l 257
 -291 764 -428 809 -446 890 c 257
 920 890 l 257
 920 1060 l 257
 -447 1060 l 257
 -447 1132 -446 1201 -446 1274 c 256
 -446 1499 -571 1626 -788 1626 c 256
 -866 1626 -914 1618 -958 1606 c 257
 -934 1436 l 257
 -887 1442 -843 1446 -806 1446 c 256
 -711 1446 -660 1383 -660 1274 c 256
 -660 1158 -666 1058 -666 942 c 256
 -666 810 -584 735 -444 732 c 257
 -444 698 l 257
 -584 695 -666 615 -666 488 c 256
 -666 367 -660 267 -660 156 c 256
 -660 35 -711 -34 -806 -34 c 256
 -843 -34 -887 -30 -934 -24 c 257
 -958 -194 l 257
 -914 -206 -866 -214 -788 -214 c 256
54 0 m 257
 230 0 l 257
 350 1420 l 257
 174 1420 l 257
 54 0 l 257
490 0 m 257
 666 0 l 257
 786 1420 l 257
 610 1420 l 257
 490 0 l 257
EndSplineSet
PickledDataWithLists: "(dp0
Vcom.schriftgestaltung.Glyphs.lastChange
p1
V2019/11/18 23:07:02
p2
s."
EndChar

StartChar: bracketleft_bar.liga
Encoding: 22 -1 22
GlifName: bracketleft_bar.liga
Width: 1126
VWidth: 0
Flags: HW
LayerCount: 2
Fore
SplineSet
454 -310 m 257
 654 -310 l 257
 654 1730 l 257
 454 1730 l 257
 454 -310 l 257
-660 -200 m 257
 -458 -200 l 257
 -458 1620 l 257
 -660 1620 l 257
 -660 -200 l 257
-478 -200 m 257
 188 -200 l 257
 188 -24 l 257
 -478 -24 l 257
 -478 -200 l 257
-478 1444 m 257
 188 1444 l 257
 188 1620 l 257
 -478 1620 l 257
 -478 1444 l 257
EndSplineSet
PickledDataWithLists: "(dp0
Vcom.schriftgestaltung.Glyphs.lastChange
p1
V2019/11/18 23:05:38
p2
s."
EndChar

StartChar: bracketright_numbersign.liga
Encoding: 23 -1 23
GlifName: bracketright_numbersign.liga
Width: 1126
VWidth: 0
Flags: HW
LayerCount: 2
Fore
SplineSet
-335 -214 m 257
 -535 -214 l 257
 -535 1634 l 257
 -335 1634 l 257
 -335 -214 l 257
-515 -214 m 257
 -961 -214 l 257
 -961 -24 l 257
 -515 -24 l 257
 -515 -214 l 257
-515 1444 m 257
 -961 1444 l 257
 -961 1634 l 257
 -515 1634 l 257
 -515 1444 l 257
490 0 m 257
 666 0 l 257
 786 1420 l 257
 610 1420 l 257
 490 0 l 257
-420 360 m 257
 920 360 l 257
 920 530 l 257
 -420 530 l 257
 -420 360 l 257
54 0 m 257
 230 0 l 257
 350 1420 l 257
 174 1420 l 257
 54 0 l 257
-420 890 m 257
 920 890 l 257
 920 1060 l 257
 -420 1060 l 257
 -420 890 l 257
EndSplineSet
PickledDataWithLists: "(dp0
Vcom.schriftgestaltung.Glyphs.lastChange
p1
V2019/11/18 23:05:38
p2
s."
EndChar

StartChar: colon_colon.liga
Encoding: 24 -1 24
GlifName: colon_colon.liga
Width: 1126
VWidth: 0
Flags: HW
LayerCount: 2
Fore
SplineSet
460 784 m 256
 542 784 608 850 608 932 c 256
 608 1014 542 1080 460 1080 c 256
 378 1080 312 1014 312 932 c 256
 312 850 378 784 460 784 c 256
460 -20 m 256
 542 -20 608 46 608 128 c 256
 608 210 542 276 460 276 c 256
 378 276 312 210 312 128 c 256
 312 46 378 -20 460 -20 c 256
-460 784 m 256
 -378 784 -312 850 -312 932 c 256
 -312 1014 -378 1080 -460 1080 c 256
 -542 1080 -608 1014 -608 932 c 256
 -608 850 -542 784 -460 784 c 256
-460 -20 m 256
 -378 -20 -312 46 -312 128 c 256
 -312 210 -378 276 -460 276 c 256
 -542 276 -608 210 -608 128 c 256
 -608 46 -542 -20 -460 -20 c 256
EndSplineSet
PickledDataWithLists: "(dp0
Vcom.schriftgestaltung.Glyphs.lastChange
p1
V2019/11/18 23:05:38
p2
s."
EndChar

StartChar: colon_colon_colon.liga
Encoding: 25 -1 25
GlifName: colon_colon_colon.liga
Width: 1126
VWidth: 0
Flags: HW
LayerCount: 2
Fore
SplineSet
200 784 m 256
 282 784 348 850 348 932 c 256
 348 1014 282 1080 200 1080 c 256
 118 1080 52 1014 52 932 c 256
 52 850 118 784 200 784 c 256
200 -20 m 256
 282 -20 348 46 348 128 c 256
 348 210 282 276 200 276 c 256
 118 276 52 210 52 128 c 256
 52 46 118 -20 200 -20 c 256
-600 784 m 256
 -518 784 -452 850 -452 932 c 256
 -452 1014 -518 1080 -600 1080 c 256
 -682 1080 -748 1014 -748 932 c 256
 -748 850 -682 784 -600 784 c 256
-600 -20 m 256
 -518 -20 -452 46 -452 128 c 256
 -452 210 -518 276 -600 276 c 256
 -682 276 -748 210 -748 128 c 256
 -748 46 -682 -20 -600 -20 c 256
-1400 784 m 256
 -1318 784 -1252 850 -1252 932 c 256
 -1252 1014 -1318 1080 -1400 1080 c 256
 -1482 1080 -1548 1014 -1548 932 c 256
 -1548 850 -1482 784 -1400 784 c 256
-1400 -20 m 256
 -1318 -20 -1252 46 -1252 128 c 256
 -1252 210 -1318 276 -1400 276 c 256
 -1482 276 -1548 210 -1548 128 c 256
 -1548 46 -1482 -20 -1400 -20 c 256
EndSplineSet
PickledDataWithLists: "(dp0
Vcom.schriftgestaltung.Glyphs.lastChange
p1
V2019/11/18 23:05:38
p2
s."
EndChar

StartChar: colon_colon_equal.liga
Encoding: 26 -1 26
GlifName: colon_colon_equal.liga
Width: 1126
VWidth: 0
Flags: HW
LayerCount: 2
Fore
SplineSet
-1150 964 m 256
 -1068 964 -1002 1030 -1002 1112 c 256
 -1002 1194 -1068 1260 -1150 1260 c 256
 -1232 1260 -1298 1194 -1298 1112 c 256
 -1298 1030 -1232 964 -1150 964 c 256
-1150 160 m 256
 -1068 160 -1002 226 -1002 308 c 256
 -1002 390 -1068 456 -1150 456 c 256
 -1232 456 -1298 390 -1298 308 c 256
 -1298 226 -1232 160 -1150 160 c 256
-1920 964 m 256
 -1838 964 -1772 1030 -1772 1112 c 256
 -1772 1194 -1838 1260 -1920 1260 c 256
 -2002 1260 -2068 1194 -2068 1112 c 256
 -2068 1030 -2002 964 -1920 964 c 256
-1920 160 m 256
 -1838 160 -1772 226 -1772 308 c 256
 -1772 390 -1838 456 -1920 456 c 256
 -2002 456 -2068 390 -2068 308 c 256
 -2068 226 -2002 160 -1920 160 c 256
-500 866 m 257
 920 866 l 257
 920 1052 l 257
 -500 1052 l 257
 -500 866 l 257
-500 366 m 257
 920 366 l 257
 920 552 l 257
 -500 552 l 257
 -500 366 l 257
EndSplineSet
PickledDataWithLists: "(dp0
Vcom.schriftgestaltung.Glyphs.lastChange
p1
V2019/11/18 23:05:38
p2
s."
EndChar

StartChar: colon_equal.liga
Encoding: 27 -1 27
GlifName: colon_equal.liga
Width: 1126
VWidth: 0
Flags: HW
LayerCount: 2
Fore
SplineSet
-660 964 m 256
 -578 964 -512 1030 -512 1112 c 256
 -512 1194 -578 1260 -660 1260 c 256
 -742 1260 -808 1194 -808 1112 c 256
 -808 1030 -742 964 -660 964 c 256
-660 160 m 256
 -578 160 -512 226 -512 308 c 256
 -512 390 -578 456 -660 456 c 256
 -742 456 -808 390 -808 308 c 256
 -808 226 -742 160 -660 160 c 256
-200 826 m 257
 920 826 l 257
 920 1012 l 257
 -200 1012 l 257
 -200 826 l 257
-200 326 m 257
 920 326 l 257
 920 512 l 257
 -200 512 l 257
 -200 326 l 257
EndSplineSet
PickledDataWithLists: "(dp0
Vcom.schriftgestaltung.Glyphs.lastChange
p1
V2019/11/18 23:05:38
p2
s."
EndChar

StartChar: colon_greater.liga
Encoding: 28 -1 28
GlifName: colon_greater.liga
Width: 1126
VWidth: 0
Flags: HW
LayerCount: 2
Fore
SplineSet
-660 964 m 256
 -578 964 -512 1030 -512 1112 c 256
 -512 1194 -578 1260 -660 1260 c 256
 -742 1260 -808 1194 -808 1112 c 256
 -808 1030 -742 964 -660 964 c 256
-660 160 m 256
 -578 160 -512 226 -512 308 c 256
 -512 390 -578 456 -660 456 c 256
 -742 456 -808 390 -808 308 c 256
 -808 226 -742 160 -660 160 c 256
-156 214 m 257
 962 608 l 257
 962 810 l 257
 -156 1204 l 257
 -156 984 l 257
 664 718 l 257
 664 700 l 257
 -156 434 l 257
 -156 214 l 257
EndSplineSet
PickledDataWithLists: "(dp0
Vcom.schriftgestaltung.Glyphs.lastChange
p1
V2019/11/18 23:05:38
p2
s."
EndChar

StartChar: colon_less.liga
Encoding: 29 -1 29
GlifName: colon_less.liga
Width: 1126
VWidth: 0
Flags: HW
LayerCount: 2
Fore
SplineSet
-652 964 m 256
 -570 964 -504 1030 -504 1112 c 256
 -504 1194 -570 1260 -652 1260 c 256
 -734 1260 -800 1194 -800 1112 c 256
 -800 1030 -734 964 -652 964 c 256
-652 160 m 256
 -570 160 -504 226 -504 308 c 256
 -504 390 -570 456 -652 456 c 256
 -734 456 -800 390 -800 308 c 256
 -800 226 -734 160 -652 160 c 256
920 214 m 257
 920 434 l 257
 100 700 l 257
 100 718 l 257
 920 984 l 257
 920 1204 l 257
 -198 810 l 257
 -198 608 l 257
 920 214 l 257
EndSplineSet
PickledDataWithLists: "(dp0
Vcom.schriftgestaltung.Glyphs.lastChange
p1
V2019/11/18 23:05:38
p2
s."
EndChar

StartChar: dollar_greater.liga
Encoding: 30 -1 30
GlifName: dollar_greater.liga
Width: 1126
VWidth: 0
Flags: HW
LayerCount: 2
Fore
SplineSet
7 214 m 257
 965 608 l 257
 965 810 l 257
 -502 1437 l 257
 -502 1222 l 257
 707 718 l 257
 707 700 l 257
 7 434 l 257
 7 214 l 257
-592 -30 m 257
 -576 154 l 257
 -706 154 -842 184 -988 242 c 257
 -1014 48 l 257
 -894 -4 -754 -30 -592 -30 c 257
-592 -30 m 257
 -252 -30 -86 102 -86 366 c 256
 -86 560 -198 674 -408 772 c 258
 -616 870 l 258
 -712 916 -762 968 -762 1060 c 256
 -762 1184 -676 1256 -526 1256 c 257
 -526 1440 l 257
 -812 1440 -976 1298 -976 1050 c 256
 -976 866 -870 748 -676 660 c 258
 -430 548 l 258
 -346 510 -300 450 -300 362 c 256
 -300 222 -390 154 -576 154 c 257
 -592 -30 l 257
-596 -320 m 257
 -458 -320 l 257
 -458 1740 l 257
 -596 1740 l 257
 -596 -320 l 257
EndSplineSet
PickledDataWithLists: "(dp0
Vcom.schriftgestaltung.Glyphs.lastChange
p1
V2019/11/18 23:07:02
p2
s."
EndChar

StartChar: equal_colon_equal.liga
Encoding: 31 -1 31
GlifName: equal_colon_equal.liga
Width: 1126
VWidth: 0
Flags: HW
LayerCount: 2
Fore
SplineSet
-600 964 m 256
 -518 964 -452 1030 -452 1112 c 256
 -452 1194 -518 1260 -600 1260 c 256
 -682 1260 -748 1194 -748 1112 c 256
 -748 1030 -682 964 -600 964 c 256
-600 160 m 256
 -518 160 -452 226 -452 308 c 256
 -452 390 -518 456 -600 456 c 256
 -682 456 -748 390 -748 308 c 256
 -748 226 -682 160 -600 160 c 256
-80 866 m 257
 920 866 l 257
 920 1052 l 257
 -80 1052 l 257
 -80 866 l 257
-80 366 m 257
 920 366 l 257
 920 552 l 257
 -80 552 l 257
 -80 366 l 257
-2120 866 m 257
 -1120 866 l 257
 -1120 1052 l 257
 -2120 1052 l 257
 -2120 866 l 257
-2120 366 m 257
 -1120 366 l 257
 -1120 552 l 257
 -2120 552 l 257
 -2120 366 l 257
EndSplineSet
PickledDataWithLists: "(dp0
Vcom.schriftgestaltung.Glyphs.lastChange
p1
V2019/11/18 23:05:38
p2
s."
EndChar

StartChar: equal_equal.liga
Encoding: 32 -1 32
GlifName: equal_equal.liga
Width: 1126
VWidth: 0
Flags: HW
LayerCount: 2
Fore
SplineSet
-1020 866 m 257
 1020 866 l 257
 1020 1052 l 257
 -1020 1052 l 257
 -1020 866 l 257
-1020 366 m 257
 1020 366 l 257
 1020 552 l 257
 -1020 552 l 257
 -1020 366 l 257
EndSplineSet
PickledDataWithLists: "(dp0
Vcom.schriftgestaltung.Glyphs.lastChange
p1
V2019/11/18 23:05:38
p2
s."
EndChar

StartChar: equal_equal_equal.liga
Encoding: 33 -1 33
GlifName: equal_equal_equal.liga
Width: 1126
VWidth: 0
Flags: HW
LayerCount: 2
Fore
SplineSet
-2220 1026 m 257
 1020 1026 l 257
 1020 1212 l 257
 -2220 1212 l 257
 -2220 1026 l 257
-2220 206 m 257
 1020 206 l 257
 1020 392 l 257
 -2220 392 l 257
 -2220 206 l 257
-2220 616 m 257
 1020 616 l 257
 1020 802 l 257
 -2220 802 l 257
 -2220 616 l 257
EndSplineSet
PickledDataWithLists: "(dp0
Vcom.schriftgestaltung.Glyphs.lastChange
p1
V2019/11/18 23:05:38
p2
s."
EndChar

StartChar: equal_equal_greater.liga
Encoding: 34 -1 34
GlifName: equal_equal_greater.liga
Width: 1126
VWidth: 0
Flags: HW
LayerCount: 2
Fore
SplineSet
6 112 m 257
 960 648 l 257
 960 770 l 257
 6 1304 l 257
 6 1084 l 257
 210 1052 l 257
 210 982 l 257
 666 718 l 257
 666 700 l 257
 206 444 l 257
 206 362 l 257
 6 332 l 257
 6 112 l 257
-2120 386 m 257
 420 386 l 257
 680 572 l 257
 -2120 572 l 257
 -2120 386 l 257
-2120 846 m 257
 540 846 l 257
 280 1032 l 257
 -2120 1032 l 257
 -2120 846 l 257
EndSplineSet
PickledDataWithLists: "(dp0
Vcom.schriftgestaltung.Glyphs.lastChange
p1
V2019/11/18 23:05:38
p2
s."
EndChar

StartChar: equal_exclam_equal.liga
Encoding: 35 -1 35
GlifName: equal_exclam_equal.liga
Width: 1126
VWidth: 0
Flags: HW
LayerCount: 2
Fore
SplineSet
-698 456 m 257
 -506 456 l 257
 -496 1430 l 257
 -704 1430 l 257
 -698 456 l 257
-600 -20 m 256
 -518 -20 -452 46 -452 128 c 256
 -452 210 -518 276 -600 276 c 256
 -682 276 -748 210 -748 128 c 256
 -748 46 -682 -20 -600 -20 c 256
-80 866 m 257
 920 866 l 257
 920 1052 l 257
 -80 1052 l 257
 -80 866 l 257
-80 366 m 257
 920 366 l 257
 920 552 l 257
 -80 552 l 257
 -80 366 l 257
-2120 866 m 257
 -1120 866 l 257
 -1120 1052 l 257
 -2120 1052 l 257
 -2120 866 l 257
-2120 366 m 257
 -1120 366 l 257
 -1120 552 l 257
 -2120 552 l 257
 -2120 366 l 257
EndSplineSet
PickledDataWithLists: "(dp0
Vcom.schriftgestaltung.Glyphs.lastChange
p1
V2019/11/18 23:05:38
p2
s."
EndChar

StartChar: equal_greater.liga
Encoding: 36 -1 36
GlifName: equal_greater.liga
Width: 1126
VWidth: 0
Flags: HW
LayerCount: 2
Fore
SplineSet
6 112 m 257
 960 648 l 257
 960 770 l 257
 6 1304 l 257
 6 1084 l 257
 210 1052 l 257
 210 982 l 257
 666 718 l 257
 666 700 l 257
 206 444 l 257
 206 362 l 257
 6 332 l 257
 6 112 l 257
-920 386 m 257
 420 386 l 257
 680 572 l 257
 -920 572 l 257
 -920 386 l 257
-920 846 m 257
 540 846 l 257
 280 1032 l 257
 -920 1032 l 257
 -920 846 l 257
EndSplineSet
PickledDataWithLists: "(dp0
Vcom.schriftgestaltung.Glyphs.lastChange
p1
V2019/11/18 23:05:38
p2
s."
EndChar

StartChar: equal_greater_greater.liga
Encoding: 37 -1 37
GlifName: equal_greater_greater.liga
Width: 1126
VWidth: 0
Flags: HW
LayerCount: 2
Fore
SplineSet
6 112 m 257
 960 648 l 257
 960 770 l 257
 6 1304 l 257
 6 1084 l 257
 666 718 l 257
 666 700 l 257
 6 332 l 257
 6 112 l 257
-2120 386 m 257
 -300 386 l 257
 -40 572 l 257
 -2120 572 l 257
 -2120 386 l 257
-2120 846 m 257
 -180 846 l 257
 -440 1032 l 257
 -2120 1032 l 257
 -2120 846 l 257
-714 112 m 257
 240 648 l 257
 240 770 l 257
 -714 1304 l 257
 -714 1084 l 257
 -510 1052 l 257
 -510 982 l 257
 -54 718 l 257
 -54 700 l 257
 -514 444 l 257
 -514 362 l 257
 -714 332 l 257
 -714 112 l 257
EndSplineSet
PickledDataWithLists: "(dp0
Vcom.schriftgestaltung.Glyphs.lastChange
p1
V2019/11/18 23:05:38
p2
s."
EndChar

StartChar: equal_less_less.liga
Encoding: 38 -1 38
GlifName: equal_less_less.liga
Width: 1126
VWidth: 0
Flags: HW
LayerCount: 2
Fore
SplineSet
920 112 m 257
 920 332 l 257
 260 700 l 257
 260 718 l 257
 920 1084 l 257
 920 1304 l 257
 -34 770 l 257
 -34 648 l 257
 920 112 l 257
-2120 366 m 257
 -292 366 l 257
 -292 552 l 257
 -2120 552 l 257
 -2120 366 l 257
-2120 866 m 257
 -292 866 l 257
 -292 1052 l 257
 -2120 1052 l 257
 -2120 866 l 257
100 112 m 257
 100 332 l 257
 -292 552 l 257
 -424 408 l 257
 100 112 l 257
-292 866 m 257
 100 1084 l 257
 100 1304 l 257
 -424 1008 l 257
 -292 866 l 257
EndSplineSet
PickledDataWithLists: "(dp0
Vcom.schriftgestaltung.Glyphs.lastChange
p1
V2019/11/18 23:05:38
p2
s."
EndChar

StartChar: equal_slash_equal.liga
Encoding: 39 -1 39
GlifName: equal_slash_equal.liga
Width: 1126
VWidth: 0
Flags: HW
LayerCount: 2
Fore
SplineSet
-1116 -100 m 257
 -914 -100 l 257
 -100 1520 l 257
 -302 1520 l 257
 -1116 -100 l 257
-2220 366 m 257
 1020 366 l 257
 1020 552 l 257
 -2220 552 l 257
 -2220 366 l 257
-2220 866 m 257
 1020 866 l 257
 1020 1052 l 257
 -2220 1052 l 257
 -2220 866 l 257
EndSplineSet
PickledDataWithLists: "(dp0
Vcom.schriftgestaltung.Glyphs.lastChange
p1
V2019/11/18 23:05:38
p2
s."
EndChar

StartChar: exclam_equal.liga
Encoding: 40 -1 40
GlifName: exclam_equal.liga
Width: 1126
VWidth: 0
Flags: HW
LayerCount: 2
Fore
SplineSet
-516 -100 m 257
 -314 -100 l 257
 500 1520 l 257
 298 1520 l 257
 -516 -100 l 257
-1020 366 m 257
 1020 366 l 257
 1020 552 l 257
 -1020 552 l 257
 -1020 366 l 257
-1020 866 m 257
 1020 866 l 257
 1020 1052 l 257
 -1020 1052 l 257
 -1020 866 l 257
EndSplineSet
PickledDataWithLists: "(dp0
Vcom.schriftgestaltung.Glyphs.lastChange
p1
V2019/11/18 23:05:38
p2
s."
EndChar

StartChar: exclam_equal_equal.liga
Encoding: 41 -1 41
GlifName: exclam_equal_equal.liga
Width: 1126
VWidth: 0
Flags: HW
LayerCount: 2
Fore
SplineSet
-1076 -100 m 257
 -874 -100 l 257
 -60 1520 l 257
 -262 1520 l 257
 -1076 -100 l 257
-2220 206 m 257
 1020 206 l 257
 1020 392 l 257
 -2220 392 l 257
 -2220 206 l 257
-2220 616 m 257
 1020 616 l 257
 1020 802 l 257
 -2220 802 l 257
 -2220 616 l 257
-2220 1026 m 257
 1020 1026 l 257
 1020 1212 l 257
 -2220 1212 l 257
 -2220 1026 l 257
EndSplineSet
PickledDataWithLists: "(dp0
Vcom.schriftgestaltung.Glyphs.lastChange
p1
V2019/11/18 23:05:38
p2
s."
EndChar

StartChar: exclam_exclam.liga
Encoding: 42 -1 42
GlifName: exclam_exclam.liga
Width: 1126
VWidth: 0
Flags: HW
LayerCount: 2
Fore
SplineSet
362 456 m 257
 554 456 l 257
 564 1430 l 257
 356 1430 l 257
 362 456 l 257
460 -20 m 256
 542 -20 608 46 608 128 c 256
 608 210 542 276 460 276 c 256
 378 276 312 210 312 128 c 256
 312 46 378 -20 460 -20 c 256
-558 456 m 257
 -366 456 l 257
 -356 1430 l 257
 -564 1430 l 257
 -558 456 l 257
-460 -20 m 256
 -378 -20 -312 46 -312 128 c 256
 -312 210 -378 276 -460 276 c 256
 -542 276 -608 210 -608 128 c 256
 -608 46 -542 -20 -460 -20 c 256
EndSplineSet
PickledDataWithLists: "(dp0
Vcom.schriftgestaltung.Glyphs.lastChange
p1
V2019/11/18 23:05:38
p2
s."
EndChar

StartChar: exclam_exclam_period.liga
Encoding: 43 -1 43
GlifName: exclam_exclam_period.liga
Width: 1126
VWidth: 0
Flags: HW
LayerCount: 2
Fore
SplineSet
500 -20 m 256
 582 -20 648 46 648 128 c 256
 648 210 582 276 500 276 c 256
 418 276 352 210 352 128 c 256
 352 46 418 -20 500 -20 c 256
-678 456 m 257
 -486 456 l 257
 -476 1430 l 257
 -684 1430 l 257
 -678 456 l 257
-580 -20 m 256
 -498 -20 -432 46 -432 128 c 256
 -432 210 -498 276 -580 276 c 256
 -662 276 -728 210 -728 128 c 256
 -728 46 -662 -20 -580 -20 c 256
-1798 456 m 257
 -1606 456 l 257
 -1596 1430 l 257
 -1804 1430 l 257
 -1798 456 l 257
-1700 -20 m 256
 -1618 -20 -1552 46 -1552 128 c 256
 -1552 210 -1618 276 -1700 276 c 256
 -1782 276 -1848 210 -1848 128 c 256
 -1848 46 -1782 -20 -1700 -20 c 256
EndSplineSet
PickledDataWithLists: "(dp0
Vcom.schriftgestaltung.Glyphs.lastChange
p1
V2019/11/18 23:05:38
p2
s."
EndChar

StartChar: greater_colon.liga
Encoding: 44 -1 44
GlifName: greater_colon.liga
Width: 1126
VWidth: 0
Flags: HW
LayerCount: 2
Fore
SplineSet
654 964 m 256
 736 964 802 1030 802 1112 c 256
 802 1194 736 1260 654 1260 c 256
 572 1260 506 1194 506 1112 c 256
 506 1030 572 964 654 964 c 256
654 160 m 256
 736 160 802 226 802 308 c 256
 802 390 736 456 654 456 c 256
 572 456 506 390 506 308 c 256
 506 226 572 160 654 160 c 256
-808 214 m 257
 150 608 l 257
 150 810 l 257
 -808 1204 l 257
 -808 984 l 257
 -108 718 l 257
 -108 700 l 257
 -808 434 l 257
 -808 214 l 257
EndSplineSet
PickledDataWithLists: "(dp0
Vcom.schriftgestaltung.Glyphs.lastChange
p1
V2019/11/18 23:05:38
p2
s."
EndChar

StartChar: greater_equal.liga
Encoding: 45 -1 45
GlifName: greater_equal.liga
Width: 1126
VWidth: 0
Flags: HW
LayerCount: 2
Fore
SplineSet
-694 484 m 257
 750 848 l 257
 750 1070 l 257
 -694 1434 l 257
 -694 1214 l 257
 442 968 l 257
 442 950 l 257
 -694 704 l 257
 -694 484 l 257
-694 144 m 257
 750 144 l 257
 750 334 l 257
 -694 334 l 257
 -694 144 l 257
EndSplineSet
PickledDataWithLists: "(dp0
Vcom.schriftgestaltung.Glyphs.lastChange
p1
V2019/11/18 23:05:38
p2
s."
EndChar

StartChar: greater_equal_greater.liga
Encoding: 46 -1 46
GlifName: greater_equal_greater.liga
Width: 1126
VWidth: 0
Flags: HW
LayerCount: 2
Fore
SplineSet
6 112 m 257
 960 648 l 257
 960 770 l 257
 6 1304 l 257
 6 1084 l 257
 210 1052 l 257
 210 982 l 257
 666 718 l 257
 666 700 l 257
 206 444 l 257
 206 362 l 257
 6 332 l 257
 6 112 l 257
-2120 112 m 257
 -1596 408 l 257
 -1728 562 l 257
 -2120 332 l 257
 -2120 112 l 257
-1728 856 m 257
 -1596 1008 l 257
 -2120 1304 l 257
 -2120 1084 l 257
 -1728 856 l 257
-1728 386 m 257
 420 386 l 257
 680 562 l 257
 -1728 562 l 257
 -1728 386 l 257
-1728 856 m 257
 540 856 l 257
 280 1032 l 257
 -1728 1032 l 257
 -1728 856 l 257
EndSplineSet
PickledDataWithLists: "(dp0
Vcom.schriftgestaltung.Glyphs.lastChange
p1
V2019/11/18 23:05:38
p2
s."
EndChar

StartChar: greater_greater.liga
Encoding: 47 -1 47
GlifName: greater_greater.liga
Width: 1126
VWidth: 0
Flags: HW
LayerCount: 2
Fore
SplineSet
2 174 m 257
 960 608 l 257
 960 810 l 257
 2 1244 l 257
 2 1024 l 257
 702 718 l 257
 702 700 l 257
 2 394 l 257
 2 174 l 257
-920 174 m 257
 38 608 l 257
 38 810 l 257
 -920 1244 l 257
 -920 1024 l 257
 -220 718 l 257
 -220 700 l 257
 -920 394 l 257
 -920 174 l 257
EndSplineSet
PickledDataWithLists: "(dp0
Vcom.schriftgestaltung.Glyphs.lastChange
p1
V2019/11/18 23:05:38
p2
s."
EndChar

StartChar: greater_greater_equal.liga
Encoding: 48 -1 48
GlifName: greater_greater_equal.liga
Width: 1126
VWidth: 0
Flags: HW
LayerCount: 2
Fore
SplineSet
-2120 112 m 257
 -1166 648 l 257
 -1166 770 l 257
 -2120 1304 l 257
 -2120 1084 l 257
 -1460 718 l 257
 -1460 700 l 257
 -2120 332 l 257
 -2120 112 l 257
-1300 112 m 257
 -776 408 l 257
 -908 552 l 257
 -1300 332 l 257
 -1300 112 l 257
-908 866 m 257
 -776 1008 l 257
 -1300 1304 l 257
 -1300 1084 l 257
 -908 866 l 257
-908 366 m 257
 920 366 l 257
 920 552 l 257
 -908 552 l 257
 -908 366 l 257
-908 866 m 257
 920 866 l 257
 920 1052 l 257
 -908 1052 l 257
 -908 866 l 257
EndSplineSet
PickledDataWithLists: "(dp0
Vcom.schriftgestaltung.Glyphs.lastChange
p1
V2019/11/18 23:05:38
p2
s."
EndChar

StartChar: greater_greater_greater.liga
Encoding: 49 -1 49
GlifName: greater_greater_greater.liga
Width: 1126
VWidth: 0
Flags: HW
LayerCount: 2
Fore
SplineSet
-1054 214 m 257
 -96 608 l 257
 -96 810 l 257
 -1054 1204 l 257
 -1054 984 l 257
 -354 718 l 257
 -354 700 l 257
 -1054 434 l 257
 -1054 214 l 257
-2120 214 m 257
 -1162 608 l 257
 -1162 810 l 257
 -2120 1204 l 257
 -2120 984 l 257
 -1420 718 l 257
 -1420 700 l 257
 -2120 434 l 257
 -2120 214 l 257
2 214 m 257
 960 608 l 257
 960 810 l 257
 2 1204 l 257
 2 984 l 257
 702 718 l 257
 702 700 l 257
 2 434 l 257
 2 214 l 257
EndSplineSet
PickledDataWithLists: "(dp0
Vcom.schriftgestaltung.Glyphs.lastChange
p1
V2019/11/18 23:05:38
p2
s."
EndChar

StartChar: greater_greater_hyphen.liga
Encoding: 50 -1 50
GlifName: greater_greater_hyphen.liga
Width: 1126
VWidth: 0
Flags: HW
LayerCount: 2
Fore
SplineSet
-1300 112 m 257
 -326 648 l 257
 -326 770 l 257
 -1300 1304 l 257
 -1300 1084 l 257
 -640 718 l 257
 -640 700 l 257
 -1300 332 l 257
 -1300 112 l 257
-2120 112 m 257
 -1166 648 l 257
 -1166 770 l 257
 -2120 1304 l 257
 -2120 1084 l 257
 -1460 718 l 257
 -1460 700 l 257
 -2120 332 l 257
 -2120 112 l 257
-412 614 m 257
 920 614 l 257
 920 802 l 257
 -412 802 l 257
 -412 614 l 257
EndSplineSet
PickledDataWithLists: "(dp0
Vcom.schriftgestaltung.Glyphs.lastChange
p1
V2019/11/18 23:05:38
p2
s."
EndChar

StartChar: greater_hyphen.liga
Encoding: 51 -1 51
GlifName: greater_hyphen.liga
Width: 1126
VWidth: 0
Flags: HW
LayerCount: 2
Fore
SplineSet
-920 112 m 257
 34 648 l 257
 34 770 l 257
 -920 1304 l 257
 -920 1084 l 257
 -260 718 l 257
 -260 700 l 257
 -920 332 l 257
 -920 112 l 257
-62 614 m 257
 920 614 l 257
 920 802 l 257
 -62 802 l 257
 -62 614 l 257
EndSplineSet
PickledDataWithLists: "(dp0
Vcom.schriftgestaltung.Glyphs.lastChange
p1
V2019/11/18 23:05:38
p2
s."
EndChar

StartChar: greater_hyphen_greater.liga
Encoding: 52 -1 52
GlifName: greater_hyphen_greater.liga
Width: 1126
VWidth: 0
Flags: HW
LayerCount: 2
Fore
SplineSet
6 112 m 257
 960 648 l 257
 960 770 l 257
 6 1304 l 257
 6 1064 l 257
 438 876 534 850 588 846 c 257
 588 570 l 257
 538 566 450 526 6 352 c 257
 6 112 l 257
-2120 112 m 257
 -1166 648 l 257
 -1166 770 l 257
 -2120 1304 l 257
 -2120 1084 l 257
 -1460 718 l 257
 -1460 700 l 257
 -2120 332 l 257
 -2120 112 l 257
-1272 614 m 257
 642 614 l 257
 642 802 l 257
 -1272 802 l 257
 -1272 614 l 257
EndSplineSet
PickledDataWithLists: "(dp0
Vcom.schriftgestaltung.Glyphs.lastChange
p1
V2019/11/18 23:05:38
p2
s."
EndChar

StartChar: hyphen_asciitilde.liga
Encoding: 53 -1 53
GlifName: hyphen_asciitilde.liga
Width: 1126
VWidth: 0
Flags: HW
LayerCount: 2
Fore
SplineSet
720 548 m 256
 898 548 1000 680 1000 908 c 258
 1000 978 l 257
 798 978 l 257
 798 928 l 258
 798 812 762 744 698 744 c 256
 546 744 392 964 240 964 c 256
 48 964 -62 860 -62 676 c 258
 -62 626 l 257
 142 626 l 257
 142 656 l 258
 142 714 180 748 244 748 c 256
 402 748 562 548 720 548 c 256
-920 626 m 257
 140 626 l 257
 140 812 l 257
 -920 812 l 257
 -920 626 l 257
EndSplineSet
PickledDataWithLists: "(dp0
Vcom.schriftgestaltung.Glyphs.lastChange
p1
V2019/11/18 23:07:02
p2
s."
EndChar

StartChar: hyphen_bar.liga
Encoding: 54 -1 54
GlifName: hyphen_bar.liga
Width: 1126
VWidth: 0
Flags: HW
LayerCount: 2
Fore
SplineSet
580 -310 m 257
 780 -310 l 257
 780 1730 l 257
 580 1730 l 257
 580 -310 l 257
-920 616 m 257
 640 616 l 257
 640 802 l 257
 -920 802 l 257
 -920 616 l 257
EndSplineSet
PickledDataWithLists: "(dp0
Vcom.schriftgestaltung.Glyphs.lastChange
p1
V2019/11/18 23:05:38
p2
s."
EndChar

StartChar: hyphen_greater.liga
Encoding: 55 -1 55
GlifName: hyphen_greater.liga
Width: 1126
VWidth: 0
Flags: HW
LayerCount: 2
Fore
SplineSet
6 112 m 257
 960 648 l 257
 960 770 l 257
 6 1304 l 257
 6 1064 l 257
 438 870 534 850 588 846 c 257
 588 570 l 257
 540 566 450 540 6 342 c 257
 6 112 l 257
-920 614 m 257
 642 614 l 257
 642 802 l 257
 -920 802 l 257
 -920 614 l 257
EndSplineSet
PickledDataWithLists: "(dp0
Vcom.schriftgestaltung.Glyphs.lastChange
p1
V2019/11/18 23:05:38
p2
s."
EndChar

StartChar: hyphen_greater_greater.liga
Encoding: 56 -1 56
GlifName: hyphen_greater_greater.liga
Width: 1126
VWidth: 0
Flags: HW
LayerCount: 2
Fore
SplineSet
6 112 m 257
 960 648 l 257
 960 770 l 257
 6 1304 l 257
 6 1064 l 257
 656 718 l 257
 656 700 l 257
 6 352 l 257
 6 112 l 257
-2120 614 m 257
 -240 614 l 257
 -240 802 l 257
 -2120 802 l 257
 -2120 614 l 257
-876 112 m 257
 78 648 l 257
 78 770 l 257
 -876 1304 l 257
 -876 1064 l 257
 -444 868 -348 850 -294 846 c 257
 -294 570 l 257
 -344 566 -432 533 -876 352 c 257
 -876 112 l 257
EndSplineSet
PickledDataWithLists: "(dp0
Vcom.schriftgestaltung.Glyphs.lastChange
p1
V2019/11/18 23:05:38
p2
s."
EndChar

StartChar: hyphen_hyphen.liga
Encoding: 57 -1 57
GlifName: hyphen_hyphen.liga
Width: 1126
VWidth: 0
Flags: HW
LayerCount: 2
Fore
SplineSet
120 616 m 257
 920 616 l 257
 920 802 l 257
 120 802 l 257
 120 616 l 257
-920 616 m 257
 -140 616 l 257
 -140 802 l 257
 -920 802 l 257
 -920 616 l 257
EndSplineSet
PickledDataWithLists: "(dp0
Vcom.schriftgestaltung.Glyphs.lastChange
p1
V2019/11/18 23:05:38
p2
s."
EndChar

StartChar: hyphen_hyphen_greater.liga
Encoding: 58 -1 58
GlifName: hyphen_hyphen_greater.liga
Width: 1126
VWidth: 0
Flags: HW
LayerCount: 2
Fore
SplineSet
6 112 m 257
 960 648 l 257
 960 770 l 257
 6 1304 l 257
 6 1064 l 257
 438 870 534 850 588 846 c 257
 588 570 l 257
 538 566 450 540 6 352 c 257
 6 112 l 257
-2120 614 m 257
 642 614 l 257
 642 802 l 257
 -2120 802 l 257
 -2120 614 l 257
EndSplineSet
PickledDataWithLists: "(dp0
Vcom.schriftgestaltung.Glyphs.lastChange
p1
V2019/11/18 23:05:38
p2
s."
EndChar

StartChar: hyphen_hyphen_hyphen.liga
Encoding: 59 -1 59
GlifName: hyphen_hyphen_hyphen.liga
Width: 1126
VWidth: 0
Flags: HW
LayerCount: 2
Fore
SplineSet
120 616 m 257
 920 616 l 257
 920 802 l 257
 120 802 l 257
 120 616 l 257
-2120 616 m 257
 -1340 616 l 257
 -1340 802 l 257
 -2120 802 l 257
 -2120 616 l 257
-1010 616 m 257
 -210 616 l 257
 -210 802 l 257
 -1010 802 l 257
 -1010 616 l 257
EndSplineSet
PickledDataWithLists: "(dp0
Vcom.schriftgestaltung.Glyphs.lastChange
p1
V2019/11/18 23:05:38
p2
s."
EndChar

StartChar: hyphen_less.liga
Encoding: 60 -1 60
GlifName: hyphen_less.liga
Width: 1126
VWidth: 0
Flags: HW
LayerCount: 2
Fore
SplineSet
920 112 m 257
 920 352 l 257
 270 700 l 257
 270 718 l 257
 920 1064 l 257
 920 1304 l 257
 -34 770 l 257
 -34 648 l 257
 920 112 l 257
-920 624 m 257
 32 624 l 257
 32 792 l 257
 -920 792 l 257
 -920 624 l 257
EndSplineSet
PickledDataWithLists: "(dp0
Vcom.schriftgestaltung.Glyphs.lastChange
p1
V2019/11/18 23:05:38
p2
s."
EndChar

StartChar: hyphen_less_less.liga
Encoding: 61 -1 61
GlifName: hyphen_less_less.liga
Width: 1126
VWidth: 0
Flags: HW
LayerCount: 2
Fore
SplineSet
920 112 m 257
 920 352 l 257
 270 700 l 257
 270 718 l 257
 920 1064 l 257
 920 1304 l 257
 -34 770 l 257
 -34 648 l 257
 920 112 l 257
-2120 614 m 257
 -788 614 l 257
 -788 802 l 257
 -2120 802 l 257
 -2120 614 l 257
100 112 m 257
 100 352 l 257
 -550 700 l 257
 -550 718 l 257
 100 1064 l 257
 100 1304 l 257
 -854 770 l 257
 -854 648 l 257
 100 112 l 257
EndSplineSet
PickledDataWithLists: "(dp0
Vcom.schriftgestaltung.Glyphs.lastChange
p1
V2019/11/18 23:05:38
p2
s."
EndChar

StartChar: less_asciitilde.liga
Encoding: 62 -1 62
GlifName: less_asciitilde.liga
Width: 1126
VWidth: 0
Flags: HW
LayerCount: 2
Fore
SplineSet
-6 112 m 257
 -6 352 l 257
 -450 526 -538 566 -588 570 c 257
 -588 846 l 257
 -534 850 -438 876 -6 1064 c 257
 -6 1304 l 257
 -960 770 l 257
 -960 648 l 257
 -6 112 l 257
236 556 m 256
 450 556 484 674 638 674 c 256
 728 674 794 650 836 604 c 257
 932 748 l 257
 866 824 770 862 640 862 c 256
 418 862 462 744 218 744 c 256
 28 744 -28 862 -256 862 c 256
 -424 862 -500 802 -600 802 c 257
 -600 614 l 257
 -464 614 -398 674 -260 674 c 256
 -30 674 -16 556 236 556 c 256
EndSplineSet
PickledDataWithLists: "(dp0
Vcom.schriftgestaltung.Glyphs.lastChange
p1
V2019/11/18 23:07:02
p2
s."
EndChar

StartChar: less_asciitilde_asciitilde.liga
Encoding: 63 -1 63
GlifName: less_asciitilde_asciitilde.liga
Width: 1126
VWidth: 0
Flags: HW
LayerCount: 2
Fore
SplineSet
-1206 112 m 257
 -1206 352 l 257
 -1650 526 -1738 566 -1788 570 c 257
 -1788 846 l 257
 -1734 850 -1638 876 -1206 1064 c 257
 -1206 1304 l 257
 -2160 770 l 257
 -2160 648 l 257
 -1206 112 l 257
-964 556 m 256
 -728 556 -692 674 -522 674 c 256
 -418 674 -262 556 -116 556 c 256
 112 556 168 674 358 674 c 256
 626 674 578 556 820 556 c 256
 858 556 910 570 944 596 c 257
 892 756 l 257
 874 746 838 744 818 744 c 256
 648 744 612 862 376 862 c 256
 124 862 110 744 -120 744 c 256
 -282 744 -348 862 -520 862 c 256
 -722 862 -754 744 -982 744 c 256
 -1172 744 -1228 862 -1456 862 c 256
 -1624 862 -1700 802 -1800 802 c 257
 -1800 614 l 257
 -1664 614 -1598 674 -1460 674 c 256
 -1230 674 -1216 556 -964 556 c 256
EndSplineSet
PickledDataWithLists: "(dp0
Vcom.schriftgestaltung.Glyphs.lastChange
p1
V2019/11/18 23:07:02
p2
s."
EndChar

StartChar: less_asciitilde_greater.liga
Encoding: 64 -1 64
GlifName: less_asciitilde_greater.liga
Width: 1126
VWidth: 0
Flags: HW
LayerCount: 2
Fore
SplineSet
-1090 446 m 257
 -886 446 l 257
 -886 476 l 258
 -886 586 -846 640 -766 640 c 256
 -614 640 -462 580 -310 580 c 256
 -162 580 -90 692 -90 920 c 258
 -90 970 l 257
 -292 970 l 257
 -292 940 l 258
 -292 830 -326 776 -392 776 c 256
 -538 776 -684 836 -830 836 c 256
 -1004 836 -1090 724 -1090 496 c 258
 -1090 446 l 257
-1182 214 m 257
 -1182 434 l 257
 -1922 700 l 257
 -1922 718 l 257
 -1182 984 l 257
 -1182 1204 l 257
 -2140 810 l 257
 -2140 608 l 257
 -1182 214 l 257
2 214 m 257
 960 608 l 257
 960 810 l 257
 2 1204 l 257
 2 984 l 257
 702 718 l 257
 702 700 l 257
 2 434 l 257
 2 214 l 257
EndSplineSet
PickledDataWithLists: "(dp0
Vcom.schriftgestaltung.Glyphs.lastChange
p1
V2019/11/18 23:05:38
p2
s."
EndChar

StartChar: less_asterisk.liga
Encoding: 65 -1 65
GlifName: less_asterisk.liga
Width: 1126
VWidth: 0
Flags: HW
LayerCount: 2
Fore
SplineSet
724 258 m 257
 890 398 l 257
 554 744 l 257
 442 648 l 257
 724 258 l 257
272 258 m 257
 554 648 l 257
 442 744 l 257
 106 398 l 257
 272 258 l 257
472 626 m 257
 524 766 l 257
 84 962 l 257
 10 758 l 257
 472 626 l 257
424 696 m 257
 572 696 l 257
 606 1176 l 257
 390 1176 l 257
 424 696 l 257
524 626 m 257
 986 758 l 257
 912 962 l 257
 472 766 l 257
 524 626 l 257
18 214 m 257
 18 434 l 257
 -722 700 l 257
 -722 718 l 257
 18 984 l 257
 18 1204 l 257
 -940 810 l 257
 -940 608 l 257
 18 214 l 257
EndSplineSet
PickledDataWithLists: "(dp0
Vcom.schriftgestaltung.Glyphs.lastChange
p1
V2019/11/18 23:05:38
p2
s."
EndChar

StartChar: less_asterisk_greater.liga
Encoding: 66 -1 66
GlifName: less_asterisk_greater.liga
Width: 1126
VWidth: 0
Flags: HW
LayerCount: 2
Fore
SplineSet
-366 258 m 257
 -200 398 l 257
 -536 744 l 257
 -648 648 l 257
 -366 258 l 257
-818 258 m 257
 -536 648 l 257
 -648 744 l 257
 -984 398 l 257
 -818 258 l 257
-618 626 m 257
 -566 766 l 257
 -1006 962 l 257
 -1080 758 l 257
 -618 626 l 257
-666 696 m 257
 -518 696 l 257
 -484 1176 l 257
 -700 1176 l 257
 -666 696 l 257
-566 626 m 257
 -104 758 l 257
 -178 962 l 257
 -618 766 l 257
 -566 626 l 257
-1182 214 m 257
 -1182 434 l 257
 -1922 700 l 257
 -1922 718 l 257
 -1182 984 l 257
 -1182 1204 l 257
 -2140 810 l 257
 -2140 608 l 257
 -1182 214 l 257
2 214 m 257
 960 608 l 257
 960 810 l 257
 2 1204 l 257
 2 984 l 257
 702 718 l 257
 702 700 l 257
 2 434 l 257
 2 214 l 257
EndSplineSet
PickledDataWithLists: "(dp0
Vcom.schriftgestaltung.Glyphs.lastChange
p1
V2019/11/18 23:05:38
p2
s."
EndChar

StartChar: less_bar.liga
Encoding: 67 -1 67
GlifName: less_bar.liga
Width: 1126
VWidth: 0
Flags: HW
LayerCount: 2
Fore
SplineSet
659 -10 m 257
 659 230 l 257
 -587 700 l 257
 -587 718 l 257
 659 1190 l 257
 659 1430 l 257
 -845 810 l 257
 -845 608 l 257
 659 -10 l 257
659 -10 m 257
 659 1430 l 257
 459 1330 l 257
 459 90 l 257
 659 -10 l 257
EndSplineSet
PickledDataWithLists: "(dp0
Vcom.schriftgestaltung.Glyphs.lastChange
p1
V2019/11/18 23:05:38
p2
s."
EndChar

StartChar: less_bar_bar.liga
Encoding: 68 -1 68
GlifName: less_bar_bar.liga
Width: 1126
VWidth: 0
Flags: HW
LayerCount: 2
Fore
SplineSet
340 -310 m 257
 540 -310 l 257
 540 1730 l 257
 340 1730 l 257
 340 -310 l 257
-400 -10 m 257
 -400 230 l 257
 -1646 700 l 257
 -1646 718 l 257
 -400 1190 l 257
 -400 1430 l 257
 -1904 810 l 257
 -1904 608 l 257
 -400 -10 l 257
-400 -10 m 257
 -400 1430 l 257
 -600 1330 l 257
 -600 90 l 257
 -400 -10 l 257
EndSplineSet
PickledDataWithLists: "(dp0
Vcom.schriftgestaltung.Glyphs.lastChange
p1
V2019/11/18 23:05:38
p2
s."
EndChar

StartChar: less_bar_bar_bar.liga
Encoding: 69 -1 69
GlifName: less_bar_bar_bar.liga
Width: 1126
VWidth: 0
Flags: HW
LayerCount: 2
Fore
SplineSet
144 -310 m 257
 344 -310 l 257
 344 1730 l 257
 144 1730 l 257
 144 -310 l 257
-856 -310 m 257
 -656 -310 l 257
 -656 1730 l 257
 -856 1730 l 257
 -856 -310 l 257
-1600 -10 m 257
 -1600 230 l 257
 -2846 700 l 257
 -2846 718 l 257
 -1600 1190 l 257
 -1600 1430 l 257
 -3104 810 l 257
 -3104 608 l 257
 -1600 -10 l 257
-1600 -10 m 257
 -1600 1430 l 257
 -1800 1330 l 257
 -1800 90 l 257
 -1600 -10 l 257
EndSplineSet
PickledDataWithLists: "(dp0
Vcom.schriftgestaltung.Glyphs.lastChange
p1
V2019/11/18 23:05:38
p2
s."
EndChar

StartChar: less_bar_greater.liga
Encoding: 70 -1 70
GlifName: less_bar_greater.liga
Width: 1126
VWidth: 0
Flags: HW
LayerCount: 2
Fore
SplineSet
-690 -310 m 257
 -490 -310 l 257
 -490 1730 l 257
 -690 1730 l 257
 -690 -310 l 257
-1182 214 m 257
 -1182 434 l 257
 -1922 700 l 257
 -1922 718 l 257
 -1182 984 l 257
 -1182 1204 l 257
 -2140 810 l 257
 -2140 608 l 257
 -1182 214 l 257
2 214 m 257
 960 608 l 257
 960 810 l 257
 2 1204 l 257
 2 984 l 257
 702 718 l 257
 702 700 l 257
 2 434 l 257
 2 214 l 257
EndSplineSet
PickledDataWithLists: "(dp0
Vcom.schriftgestaltung.Glyphs.lastChange
p1
V2019/11/18 23:05:38
p2
s."
EndChar

StartChar: less_colon.liga
Encoding: 71 -1 71
GlifName: less_colon.liga
Width: 1126
VWidth: 0
Flags: HW
LayerCount: 2
Fore
SplineSet
658 964 m 256
 740 964 806 1030 806 1112 c 256
 806 1194 740 1260 658 1260 c 256
 576 1260 510 1194 510 1112 c 256
 510 1030 576 964 658 964 c 256
658 160 m 256
 740 160 806 226 806 308 c 256
 806 390 740 456 658 456 c 256
 576 456 510 390 510 308 c 256
 510 226 576 160 658 160 c 256
172 214 m 257
 172 434 l 257
 -568 700 l 257
 -568 718 l 257
 172 984 l 257
 172 1204 l 257
 -786 810 l 257
 -786 608 l 257
 172 214 l 257
EndSplineSet
PickledDataWithLists: "(dp0
Vcom.schriftgestaltung.Glyphs.lastChange
p1
V2019/11/18 23:05:38
p2
s."
EndChar

StartChar: less_dollar.liga
Encoding: 72 -1 72
GlifName: less_dollar.liga
Width: 1126
VWidth: 0
Flags: HW
LayerCount: 2
Fore
SplineSet
498 -42 m 257
 498 178 l 257
 -752 700 l 257
 -752 718 l 257
 -22 994 l 257
 -22 1210 l 257
 -1000 810 l 257
 -1000 608 l 257
 498 -42 l 257
468 -30 m 257
 808 -30 974 102 974 366 c 256
 974 560 862 674 652 772 c 258
 444 870 l 258
 348 916 298 968 298 1060 c 256
 298 1178 384 1246 534 1246 c 257
 534 1440 l 257
 248 1440 84 1298 84 1050 c 256
 84 866 190 748 384 660 c 258
 630 548 l 258
 714 510 760 450 760 362 c 256
 760 229 670 164 484 164 c 257
 468 -30 l 257
464 -320 m 257
 602 -320 l 257
 602 1740 l 257
 464 1740 l 257
 464 -320 l 257
781 1094 m 257
 949 1221 l 257
 882 1360 730 1440 534 1440 c 257
 535 1246 l 257
 635 1246 725 1191 781 1094 c 257
EndSplineSet
PickledDataWithLists: "(dp0
Vcom.schriftgestaltung.Glyphs.lastChange
p1
V2019/11/18 23:07:02
p2
s."
EndChar

StartChar: less_dollar_greater.liga
Encoding: 73 -1 73
GlifName: less_dollar_greater.liga
Width: 1126
VWidth: 0
Flags: HW
LayerCount: 2
Fore
SplineSet
-604 -63 m 257
 -604 147 l 257
 -1952 700 l 257
 -1952 718 l 257
 -1222 994 l 257
 -1222 1210 l 257
 -2200 810 l 257
 -2200 608 l 257
 -604 -63 l 257
-664 -30 m 257
 -324 -30 -158 102 -158 366 c 256
 -158 560 -270 673 -480 772 c 258
 -688 870 l 258
 -784 915 -834 968 -834 1060 c 256
 -834 1184 -748 1256 -598 1256 c 257
 -598 1440 l 257
 -884 1440 -1048 1298 -1048 1050 c 256
 -1048 866 -942 748 -748 660 c 258
 -502 548 l 258
 -418 510 -372 450 -372 362 c 256
 -372 222 -462 154 -648 154 c 257
 -664 -30 l 257
-668 -320 m 257
 -530 -320 l 257
 -530 1740 l 257
 -668 1740 l 257
 -668 -320 l 257
2 214 m 257
 960 608 l 257
 960 810 l 257
 -547 1447 l 257
 -547 1232 l 257
 702 718 l 257
 702 700 l 257
 2 434 l 257
 2 214 l 257
EndSplineSet
PickledDataWithLists: "(dp0
Vcom.schriftgestaltung.Glyphs.lastChange
p1
V2019/11/18 23:05:38
p2
s."
EndChar

StartChar: less_equal.liga
Encoding: 74 -1 74
GlifName: less_equal.liga
Width: 1126
VWidth: 0
Flags: HW
LayerCount: 2
Fore
SplineSet
750 484 m 257
 750 704 l 257
 -386 950 l 257
 -386 968 l 257
 750 1214 l 257
 750 1434 l 257
 -694 1070 l 257
 -694 848 l 257
 750 484 l 257
-694 144 m 257
 750 144 l 257
 750 334 l 257
 -694 334 l 257
 -694 144 l 257
EndSplineSet
PickledDataWithLists: "(dp0
Vcom.schriftgestaltung.Glyphs.lastChange
p1
V2019/11/18 23:07:02
p2
s."
EndChar

StartChar: less_equal_equal.liga
Encoding: 75 -1 75
GlifName: less_equal_equal.liga
Width: 1126
VWidth: 0
Flags: HW
LayerCount: 2
Fore
SplineSet
-1206 92 m 257
 -1206 332 l 257
 -1406 362 l 257
 -1406 444 l 257
 -1866 700 l 257
 -1866 718 l 257
 -1410 982 l 257
 -1410 1052 l 257
 -1206 1084 l 257
 -1206 1324 l 257
 -2160 770 l 257
 -2160 648 l 257
 -1206 92 l 257
-1620 386 m 257
 920 386 l 257
 920 572 l 257
 -1880 572 l 257
 -1620 386 l 257
-1740 846 m 257
 920 846 l 257
 920 1032 l 257
 -1480 1032 l 257
 -1740 846 l 257
EndSplineSet
PickledDataWithLists: "(dp0
Vcom.schriftgestaltung.Glyphs.lastChange
p1
V2019/11/18 23:05:38
p2
s."
EndChar

StartChar: less_equal_equal_greater.liga
Encoding: 76 -1 76
GlifName: less_equal_equal_greater.liga
Width: 1126
VWidth: 0
Flags: HW
LayerCount: 2
Fore
SplineSet
6 112 m 257
 960 648 l 257
 960 770 l 257
 6 1304 l 257
 6 1084 l 257
 210 1052 l 257
 210 982 l 257
 666 718 l 257
 666 700 l 257
 206 444 l 257
 206 362 l 257
 6 332 l 257
 6 112 l 257
-2406 112 m 257
 -2406 332 l 257
 -2606 362 l 257
 -2606 444 l 257
 -3066 700 l 257
 -3066 718 l 257
 -2610 982 l 257
 -2610 1052 l 257
 -2406 1084 l 257
 -2406 1304 l 257
 -3360 770 l 257
 -3360 648 l 257
 -2406 112 l 257
-2820 386 m 257
 420 386 l 257
 680 552 l 257
 -3080 552 l 257
 -2820 386 l 257
-2940 866 m 257
 540 866 l 257
 280 1032 l 257
 -2680 1032 l 257
 -2940 866 l 257
EndSplineSet
PickledDataWithLists: "(dp0
Vcom.schriftgestaltung.Glyphs.lastChange
p1
V2019/11/18 23:05:38
p2
s."
EndChar

StartChar: less_equal_greater.liga
Encoding: 77 -1 77
GlifName: less_equal_greater.liga
Width: 1126
VWidth: 0
Flags: HW
LayerCount: 2
Fore
SplineSet
6 92 m 257
 960 648 l 257
 960 770 l 257
 6 1324 l 257
 6 1084 l 257
 210 1052 l 257
 210 982 l 257
 666 718 l 257
 666 700 l 257
 206 444 l 257
 206 362 l 257
 6 332 l 257
 6 92 l 257
-1206 92 m 257
 -1206 332 l 257
 -1406 362 l 257
 -1406 444 l 257
 -1866 700 l 257
 -1866 718 l 257
 -1410 982 l 257
 -1410 1052 l 257
 -1206 1084 l 257
 -1206 1324 l 257
 -2160 770 l 257
 -2160 648 l 257
 -1206 92 l 257
-1620 386 m 257
 420 386 l 257
 680 572 l 257
 -1880 572 l 257
 -1620 386 l 257
-1740 846 m 257
 540 846 l 257
 280 1032 l 257
 -1480 1032 l 257
 -1740 846 l 257
EndSplineSet
PickledDataWithLists: "(dp0
Vcom.schriftgestaltung.Glyphs.lastChange
p1
V2019/11/18 23:05:38
p2
s."
EndChar

StartChar: less_equal_less.liga
Encoding: 78 -1 78
GlifName: less_equal_less.liga
Width: 1126
VWidth: 0
Flags: HW
LayerCount: 2
Fore
SplineSet
-1206 92 m 257
 -1206 332 l 257
 -1406 362 l 257
 -1406 444 l 257
 -1866 700 l 257
 -1866 718 l 257
 -1410 982 l 257
 -1410 1052 l 257
 -1206 1084 l 257
 -1206 1324 l 257
 -2160 770 l 257
 -2160 648 l 257
 -1206 92 l 257
-1620 386 m 257
 528 386 l 257
 528 592 l 257
 -1880 592 l 257
 -1620 386 l 257
-1740 826 m 257
 528 826 l 257
 528 1032 l 257
 -1480 1032 l 257
 -1740 826 l 257
920 112 m 257
 920 332 l 257
 528 592 l 257
 396 428 l 257
 920 112 l 257
528 826 m 257
 920 1084 l 257
 920 1304 l 257
 396 988 l 257
 528 826 l 257
EndSplineSet
PickledDataWithLists: "(dp0
Vcom.schriftgestaltung.Glyphs.lastChange
p1
V2019/11/18 23:05:38
p2
s."
EndChar

StartChar: less_exclam_hyphen_hyphen.liga
Encoding: 79 -1 79
GlifName: less_exclam_hyphen_hyphen.liga
Width: 1126
VWidth: 0
Flags: HW
LayerCount: 2
Fore
SplineSet
-1738 456 m 257
 -1546 456 l 257
 -1536 1430 l 257
 -1744 1430 l 257
 -1738 456 l 257
-1640 -20 m 256
 -1558 -20 -1492 46 -1492 128 c 256
 -1492 210 -1558 276 -1640 276 c 256
 -1722 276 -1788 210 -1788 128 c 256
 -1788 46 -1722 -20 -1640 -20 c 256
-2406 112 m 257
 -2406 352 l 257
 -2850 526 -2938 566 -2988 570 c 257
 -2988 846 l 257
 -2934 850 -2838 876 -2406 1064 c 257
 -2406 1304 l 257
 -3360 770 l 257
 -3360 648 l 257
 -2406 112 l 257
-3042 614 m 257
 -2002 614 l 257
 -2002 802 l 257
 -3042 802 l 257
 -3042 614 l 257
-1282 614 m 257
 920 614 l 257
 920 802 l 257
 -1282 802 l 257
 -1282 614 l 257
EndSplineSet
PickledDataWithLists: "(dp0
Vcom.schriftgestaltung.Glyphs.lastChange
p1
V2019/11/18 23:05:38
p2
s."
EndChar

StartChar: less_greater.liga
Encoding: 80 -1 80
GlifName: less_greater.liga
Width: 1126
VWidth: 0
Flags: HW
LayerCount: 2
Fore
SplineSet
10 214 m 257
 968 608 l 257
 968 810 l 257
 10 1204 l 257
 10 984 l 257
 710 718 l 257
 710 700 l 257
 10 434 l 257
 10 214 l 257
10 214 m 257
 10 434 l 257
 -730 700 l 257
 -730 718 l 257
 10 984 l 257
 10 1204 l 257
 -948 810 l 257
 -948 608 l 257
 10 214 l 257
EndSplineSet
PickledDataWithLists: "(dp0
Vcom.schriftgestaltung.Glyphs.lastChange
p1
V2019/11/18 23:05:38
p2
s."
EndChar

StartChar: less_hyphen.liga
Encoding: 81 -1 81
GlifName: less_hyphen.liga
Width: 1126
VWidth: 0
Flags: HW
LayerCount: 2
Fore
SplineSet
-6 112 m 257
 -6 352 l 257
 -450 526 -538 566 -588 570 c 257
 -588 846 l 257
 -534 850 -438 876 -6 1064 c 257
 -6 1304 l 257
 -960 770 l 257
 -960 648 l 257
 -6 112 l 257
-642 614 m 257
 920 614 l 257
 920 802 l 257
 -642 802 l 257
 -642 614 l 257
EndSplineSet
PickledDataWithLists: "(dp0
Vcom.schriftgestaltung.Glyphs.lastChange
p1
V2019/11/18 23:05:38
p2
s."
EndChar

StartChar: less_hyphen_greater.liga
Encoding: 82 -1 82
GlifName: less_hyphen_greater.liga
Width: 1126
VWidth: 0
Flags: HW
LayerCount: 2
Fore
SplineSet
6 112 m 257
 960 648 l 257
 960 770 l 257
 6 1304 l 257
 6 1064 l 257
 438 876 534 850 588 846 c 257
 588 570 l 257
 538 566 450 526 6 352 c 257
 6 112 l 257
-1206 112 m 257
 -1206 352 l 257
 -1650 526 -1738 566 -1788 570 c 257
 -1788 846 l 257
 -1734 850 -1638 876 -1206 1064 c 257
 -1206 1304 l 257
 -2160 770 l 257
 -2160 648 l 257
 -1206 112 l 257
-1842 614 m 257
 642 614 l 257
 642 802 l 257
 -1842 802 l 257
 -1842 614 l 257
EndSplineSet
PickledDataWithLists: "(dp0
Vcom.schriftgestaltung.Glyphs.lastChange
p1
V2019/11/18 23:05:38
p2
s."
EndChar

StartChar: less_hyphen_hyphen.liga
Encoding: 83 -1 83
GlifName: less_hyphen_hyphen.liga
Width: 1126
VWidth: 0
Flags: HW
LayerCount: 2
Fore
SplineSet
-1206 112 m 257
 -1206 352 l 257
 -1650 526 -1738 566 -1788 570 c 257
 -1788 846 l 257
 -1734 850 -1638 876 -1206 1064 c 257
 -1206 1304 l 257
 -2160 770 l 257
 -2160 648 l 257
 -1206 112 l 257
-1842 614 m 257
 920 614 l 257
 920 802 l 257
 -1842 802 l 257
 -1842 614 l 257
EndSplineSet
PickledDataWithLists: "(dp0
Vcom.schriftgestaltung.Glyphs.lastChange
p1
V2019/11/18 23:05:38
p2
s."
EndChar

StartChar: less_hyphen_less.liga
Encoding: 84 -1 84
GlifName: less_hyphen_less.liga
Width: 1126
VWidth: 0
Flags: HW
LayerCount: 2
Fore
SplineSet
920 112 m 257
 920 352 l 257
 280 700 l 257
 280 718 l 257
 920 1064 l 257
 920 1304 l 257
 -34 770 l 257
 -34 648 l 257
 920 112 l 257
-1206 112 m 257
 -1206 352 l 257
 -1650 526 -1738 566 -1788 570 c 257
 -1788 846 l 257
 -1734 850 -1638 876 -1206 1064 c 257
 -1206 1304 l 257
 -2160 770 l 257
 -2160 648 l 257
 -1206 112 l 257
-1842 614 m 257
 32 614 l 257
 32 802 l 257
 -1842 802 l 257
 -1842 614 l 257
EndSplineSet
PickledDataWithLists: "(dp0
Vcom.schriftgestaltung.Glyphs.lastChange
p1
V2019/11/18 23:05:38
p2
s."
EndChar

StartChar: less_less.liga
Encoding: 85 -1 85
GlifName: less_less.liga
Width: 1126
VWidth: 0
Flags: HW
LayerCount: 2
Fore
SplineSet
18 164 m 257
 18 384 l 257
 -702 700 l 257
 -702 718 l 257
 18 1034 l 257
 18 1254 l 257
 -960 810 l 257
 -960 608 l 257
 18 164 l 257
920 164 m 257
 920 384 l 257
 220 700 l 257
 220 718 l 257
 920 1034 l 257
 920 1254 l 257
 -38 810 l 257
 -38 608 l 257
 920 164 l 257
EndSplineSet
PickledDataWithLists: "(dp0
Vcom.schriftgestaltung.Glyphs.lastChange
p1
V2019/11/18 23:05:38
p2
s."
EndChar

StartChar: less_less_equal.liga
Encoding: 86 -1 86
GlifName: less_less_equal.liga
Width: 1126
VWidth: 0
Flags: HW
LayerCount: 2
Fore
SplineSet
-486 92 m 257
 -486 332 l 257
 -686 362 l 257
 -686 444 l 257
 -1146 700 l 257
 -1146 718 l 257
 -690 982 l 257
 -690 1052 l 257
 -486 1084 l 257
 -486 1324 l 257
 -1440 770 l 257
 -1440 648 l 257
 -486 92 l 257
-1206 92 m 257
 -1206 332 l 257
 -1866 700 l 257
 -1866 718 l 257
 -1206 1084 l 257
 -1206 1324 l 257
 -2160 770 l 257
 -2160 648 l 257
 -1206 92 l 257
-900 386 m 257
 920 386 l 257
 920 572 l 257
 -1160 572 l 257
 -900 386 l 257
-1020 846 m 257
 920 846 l 257
 920 1032 l 257
 -760 1032 l 257
 -1020 846 l 257
EndSplineSet
PickledDataWithLists: "(dp0
Vcom.schriftgestaltung.Glyphs.lastChange
p1
V2019/11/18 23:05:38
p2
s."
EndChar

StartChar: less_less_hyphen.liga
Encoding: 87 -1 87
GlifName: less_less_hyphen.liga
Width: 1126
VWidth: 0
Flags: HW
LayerCount: 2
Fore
SplineSet
-324 112 m 257
 -324 352 l 257
 -768 526 -856 566 -906 570 c 257
 -906 846 l 257
 -852 850 -756 876 -324 1064 c 257
 -324 1304 l 257
 -1278 770 l 257
 -1278 648 l 257
 -324 112 l 257
-1206 112 m 257
 -1206 352 l 257
 -1866 700 l 257
 -1866 718 l 257
 -1206 1064 l 257
 -1206 1304 l 257
 -2160 770 l 257
 -2160 648 l 257
 -1206 112 l 257
-960 614 m 257
 920 614 l 257
 920 802 l 257
 -960 802 l 257
 -960 614 l 257
EndSplineSet
PickledDataWithLists: "(dp0
Vcom.schriftgestaltung.Glyphs.lastChange
p1
V2019/11/18 23:05:38
p2
s."
EndChar

StartChar: less_less_less.liga
Encoding: 88 -1 88
GlifName: less_less_less.liga
Width: 1126
VWidth: 0
Flags: HW
LayerCount: 2
Fore
SplineSet
-126 214 m 257
 -126 434 l 257
 -866 700 l 257
 -866 718 l 257
 -126 984 l 257
 -126 1204 l 257
 -1084 810 l 257
 -1084 608 l 257
 -126 214 l 257
-1182 214 m 257
 -1182 434 l 257
 -1922 700 l 257
 -1922 718 l 257
 -1182 984 l 257
 -1182 1204 l 257
 -2140 810 l 257
 -2140 608 l 257
 -1182 214 l 257
920 214 m 257
 920 434 l 257
 180 700 l 257
 180 718 l 257
 920 984 l 257
 920 1204 l 257
 -38 810 l 257
 -38 608 l 257
 920 214 l 257
EndSplineSet
PickledDataWithLists: "(dp0
Vcom.schriftgestaltung.Glyphs.lastChange
p1
V2019/11/18 23:05:38
p2
s."
EndChar

StartChar: less_plus.liga
Encoding: 89 -1 89
GlifName: less_plus.liga
Width: 1126
VWidth: 0
Flags: HW
LayerCount: 2
Fore
SplineSet
324 190 m 257
 516 190 l 257
 516 1228 l 257
 324 1228 l 257
 324 190 l 257
-80 617 m 257
 920 617 l 257
 920 803 l 257
 -80 803 l 257
 -80 617 l 257
18 214 m 257
 18 434 l 257
 -722 700 l 257
 -722 718 l 257
 18 984 l 257
 18 1204 l 257
 -940 810 l 257
 -940 608 l 257
 18 214 l 257
EndSplineSet
PickledDataWithLists: "(dp0
Vcom.schriftgestaltung.Glyphs.lastChange
p1
V2019/11/18 23:05:38
p2
s."
EndChar

StartChar: less_plus_greater.liga
Encoding: 90 -1 90
GlifName: less_plus_greater.liga
Width: 1126
VWidth: 0
Flags: HW
LayerCount: 2
Fore
SplineSet
-686 190 m 257
 -494 190 l 257
 -494 1228 l 257
 -686 1228 l 257
 -686 190 l 257
-1090 617 m 257
 -90 617 l 257
 -90 803 l 257
 -1090 803 l 257
 -1090 617 l 257
-1182 214 m 257
 -1182 434 l 257
 -1922 700 l 257
 -1922 718 l 257
 -1182 984 l 257
 -1182 1204 l 257
 -2140 810 l 257
 -2140 608 l 257
 -1182 214 l 257
2 214 m 257
 960 608 l 257
 960 810 l 257
 2 1204 l 257
 2 984 l 257
 702 718 l 257
 702 700 l 257
 2 434 l 257
 2 214 l 257
EndSplineSet
PickledDataWithLists: "(dp0
Vcom.schriftgestaltung.Glyphs.lastChange
p1
V2019/11/18 23:05:38
p2
s."
EndChar

StartChar: less_slash.liga
Encoding: 91 -1 91
GlifName: less_slash.liga
Width: 1126
VWidth: 0
Flags: HW
LayerCount: 2
Fore
SplineSet
48 -190 m 257
 260 -190 l 257
 1064 1610 l 257
 852 1610 l 257
 48 -190 l 257
336 46 m 257
 366 246 l 257
 -712 700 l 257
 -712 718 l 257
 18 994 l 257
 18 1214 l 257
 -960 810 l 257
 -960 608 l 257
 336 46 l 257
EndSplineSet
PickledDataWithLists: "(dp0
Vcom.schriftgestaltung.Glyphs.lastChange
p1
V2019/11/18 23:05:38
p2
s."
EndChar

StartChar: less_slash_greater.liga
Encoding: 93 -1 93
GlifName: less_slash_greater.liga
Width: 1126
VWidth: 0
Flags: HW
LayerCount: 2
Fore
SplineSet
-1086 -190 m 257
 -874 -190 l 257
 -70 1610 l 257
 -282 1610 l 257
 -1086 -190 l 257
-864 46 m 257
 -834 246 l 257
 -1912 700 l 257
 -1912 718 l 257
 -1182 994 l 257
 -1182 1214 l 257
 -2160 810 l 257
 -2160 608 l 257
 -864 46 l 257
2 214 m 257
 960 608 l 257
 960 810 l 257
 -341 1362 l 257
 -341 1147 l 257
 702 718 l 257
 702 700 l 257
 2 434 l 257
 2 214 l 257
EndSplineSet
PickledDataWithLists: "(dp0
Vcom.schriftgestaltung.Glyphs.lastChange
p1
V2019/11/18 23:05:38
p2
s."
EndChar

StartChar: num_num_num.liga
Encoding: 94 -1 94
GlifName: num_num_num.liga
Width: 1126
VWidth: 0
Flags: HW
LayerCount: 2
Fore
SplineSet
490 0 m 257
 666 0 l 257
 786 1420 l 257
 610 1420 l 257
 490 0 l 257
-80 360 m 257
 920 360 l 257
 920 530 l 257
 -80 530 l 257
 -80 360 l 257
54 0 m 257
 230 0 l 257
 350 1420 l 257
 174 1420 l 257
 54 0 l 257
-80 890 m 257
 920 890 l 257
 920 1060 l 257
 -80 1060 l 257
 -80 890 l 257
-530 0 m 257
 -354 0 l 257
 -234 1420 l 257
 -410 1420 l 257
 -530 0 l 257
-1100 360 m 257
 -100 360 l 257
 -100 530 l 257
 -1100 530 l 257
 -1100 360 l 257
-966 0 m 257
 -790 0 l 257
 -670 1420 l 257
 -846 1420 l 257
 -966 0 l 257
-1100 890 m 257
 -100 890 l 257
 -100 1060 l 257
 -1100 1060 l 257
 -1100 890 l 257
-1550 0 m 257
 -1374 0 l 257
 -1254 1420 l 257
 -1430 1420 l 257
 -1550 0 l 257
-2120 360 m 257
 -1120 360 l 257
 -1120 530 l 257
 -2120 530 l 257
 -2120 360 l 257
-1986 0 m 257
 -1810 0 l 257
 -1690 1420 l 257
 -1866 1420 l 257
 -1986 0 l 257
-2120 890 m 257
 -1120 890 l 257
 -1120 1060 l 257
 -2120 1060 l 257
 -2120 890 l 257
-1242 890 m 257
 88 890 l 257
 88 1060 l 257
 -1242 1060 l 257
 -1242 890 l 257
-1242 360 m 257
 88 360 l 257
 88 530 l 257
 -1242 530 l 257
 -1242 360 l 257
EndSplineSet
PickledDataWithLists: "(dp0
Vcom.schriftgestaltung.Glyphs.lastChange
p1
V2019/11/18 23:05:38
p2
s."
EndChar

StartChar: num_num_num_num.liga
Encoding: 95 -1 95
GlifName: num_num_num_num.liga
Width: 1126
VWidth: 0
Flags: HW
LayerCount: 2
Fore
SplineSet
490 0 m 257
 666 0 l 257
 786 1420 l 257
 610 1420 l 257
 490 0 l 257
-80 360 m 257
 920 360 l 257
 920 530 l 257
 -80 530 l 257
 -80 360 l 257
54 0 m 257
 230 0 l 257
 350 1420 l 257
 174 1420 l 257
 54 0 l 257
-80 890 m 257
 920 890 l 257
 920 1060 l 257
 -80 1060 l 257
 -80 890 l 257
-590 0 m 257
 -414 0 l 257
 -294 1420 l 257
 -470 1420 l 257
 -590 0 l 257
-1160 360 m 257
 -160 360 l 257
 -160 530 l 257
 -1160 530 l 257
 -1160 360 l 257
-1026 0 m 257
 -850 0 l 257
 -730 1420 l 257
 -906 1420 l 257
 -1026 0 l 257
-1160 890 m 257
 -160 890 l 257
 -160 1060 l 257
 -1160 1060 l 257
 -1160 890 l 257
-1670 0 m 257
 -1494 0 l 257
 -1374 1420 l 257
 -1550 1420 l 257
 -1670 0 l 257
-2240 360 m 257
 -1240 360 l 257
 -1240 530 l 257
 -2240 530 l 257
 -2240 360 l 257
-2106 0 m 257
 -1930 0 l 257
 -1810 1420 l 257
 -1986 1420 l 257
 -2106 0 l 257
-2240 890 m 257
 -1240 890 l 257
 -1240 1060 l 257
 -2240 1060 l 257
 -2240 890 l 257
-2750 0 m 257
 -2574 0 l 257
 -2454 1420 l 257
 -2630 1420 l 257
 -2750 0 l 257
-3320 360 m 257
 -2320 360 l 257
 -2320 530 l 257
 -3320 530 l 257
 -3320 360 l 257
-3186 0 m 257
 -3010 0 l 257
 -2890 1420 l 257
 -3066 1420 l 257
 -3186 0 l 257
-3320 890 m 257
 -2320 890 l 257
 -2320 1060 l 257
 -3320 1060 l 257
 -3320 890 l 257
-2442 890 m 257
 88 890 l 257
 88 1060 l 257
 -2442 1060 l 257
 -2442 890 l 257
-2442 360 m 257
 88 360 l 257
 88 530 l 257
 -2442 530 l 257
 -2442 360 l 257
EndSplineSet
PickledDataWithLists: "(dp0
Vcom.schriftgestaltung.Glyphs.lastChange
p1
V2019/11/18 23:05:38
p2
s."
EndChar

StartChar: num_under_parenleft.liga
Encoding: 96 -1 96
GlifName: num_under_parenleft.liga
Width: 1126
VWidth: 0
Flags: HW
LayerCount: 2
Fore
SplineSet
974 -176 m 257
 960 -30 l 257
 952 -30 l 258
 636 -30 458 242 458 716 c 256
 458 1175 636 1440 952 1440 c 258
 960 1440 l 257
 980 1620 l 257
 932 1620 l 258
 498 1620 248 1291 248 716 c 256
 248 272 440 20 612 20 c 257
 612 -46 l 257
 974 -176 l 257
-2120 360 m 257
 -1120 360 l 257
 -1120 530 l 257
 -2120 530 l 257
 -2120 360 l 257
-1986 0 m 257
 -1810 0 l 257
 -1690 1420 l 257
 -1866 1420 l 257
 -1986 0 l 257
-1564 -176 m 257
 -1388 -176 l 257
 -1254 1420 l 257
 -1430 1420 l 257
 -1564 -176 l 257
-2120 890 m 257
 -1120 890 l 257
 -1120 1060 l 257
 -2120 1060 l 257
 -2120 890 l 257
-1500 -176 m 257
 974 -176 l 257
 942 -96 l 257
 740 0 l 257
 -1500 0 l 257
 -1500 -176 l 257
EndSplineSet
PickledDataWithLists: "(dp0
Vcom.schriftgestaltung.Glyphs.lastChange
p1
V2019/11/18 23:05:38
p2
s."
EndChar

StartChar: numbersign_braceleft.liga
Encoding: 97 -1 97
GlifName: numbersign_braceleft.liga
Width: 1126
VWidth: 0
Flags: HW
LayerCount: 2
Fore
SplineSet
826 -214 m 256
 904 -214 952 -206 996 -194 c 257
 972 -24 l 257
 925 -30 881 -34 844 -34 c 256
 749 -34 698 35 698 156 c 256
 698 267 704 367 704 488 c 256
 704 615 622 695 482 698 c 257
 482 732 l 257
 622 735 704 810 704 942 c 256
 704 1058 698 1158 698 1274 c 256
 698 1383 749 1446 844 1446 c 256
 881 1446 925 1442 972 1436 c 257
 996 1606 l 257
 952 1618 904 1626 826 1626 c 256
 609 1626 484 1499 484 1274 c 256
 484 1152 486 1041 486 908 c 256
 486 816 334 764 256 764 c 257
 256 666 l 257
 338 666 486 634 486 522 c 256
 486 395 484 278 484 156 c 256
 484 -78 609 -214 826 -214 c 256
-806 0 m 257
 -630 0 l 257
 -510 1420 l 257
 -686 1420 l 257
 -806 0 l 257
-940 360 m 257
 520 360 l 257
 520 530 l 257
 -940 530 l 257
 -940 360 l 257
-370 0 m 257
 -194 0 l 257
 -74 1420 l 257
 -250 1420 l 257
 -370 0 l 257
-940 890 m 257
 520 890 l 257
 520 1060 l 257
 -940 1060 l 257
 -940 890 l 257
EndSplineSet
PickledDataWithLists: "(dp0
Vcom.schriftgestaltung.Glyphs.lastChange
p1
V2019/11/18 23:07:02
p2
s."
EndChar

StartChar: numbersign_bracketleft.liga
Encoding: 98 -1 98
GlifName: numbersign_bracketleft.liga
Width: 1126
VWidth: 0
Flags: HW
LayerCount: 2
Fore
SplineSet
336 -214 m 257
 536 -214 l 257
 536 1634 l 257
 336 1634 l 257
 336 -214 l 257
516 -214 m 257
 962 -214 l 257
 962 -24 l 257
 516 -24 l 257
 516 -214 l 257
516 1444 m 257
 962 1444 l 257
 962 1634 l 257
 516 1634 l 257
 516 1444 l 257
-350 0 m 257
 -174 0 l 257
 -54 1420 l 257
 -230 1420 l 257
 -350 0 l 257
-786 0 m 257
 -610 0 l 257
 -490 1420 l 257
 -666 1420 l 257
 -786 0 l 257
-920 360 m 257
 440 360 l 257
 440 530 l 257
 -920 530 l 257
 -920 360 l 257
-920 890 m 257
 440 890 l 257
 440 1060 l 257
 -920 1060 l 257
 -920 890 l 257
EndSplineSet
PickledDataWithLists: "(dp0
Vcom.schriftgestaltung.Glyphs.lastChange
p1
V2019/11/18 23:05:38
p2
s."
EndChar

StartChar: numbersign_colon.liga
Encoding: 99 -1 99
GlifName: numbersign_colon.liga
Width: 1126
VWidth: 0
Flags: HW
LayerCount: 2
Fore
SplineSet
622 964 m 256
 704 964 770 1030 770 1112 c 256
 770 1194 704 1260 622 1260 c 256
 540 1260 474 1194 474 1112 c 256
 474 1030 540 964 622 964 c 256
622 160 m 256
 704 160 770 226 770 308 c 256
 770 390 704 456 622 456 c 256
 540 456 474 390 474 308 c 256
 474 226 540 160 622 160 c 256
-350 0 m 257
 -174 0 l 257
 -54 1420 l 257
 -230 1420 l 257
 -350 0 l 257
-920 360 m 257
 80 360 l 257
 80 530 l 257
 -920 530 l 257
 -920 360 l 257
-786 0 m 257
 -610 0 l 257
 -490 1420 l 257
 -666 1420 l 257
 -786 0 l 257
-920 890 m 257
 80 890 l 257
 80 1060 l 257
 -920 1060 l 257
 -920 890 l 257
EndSplineSet
PickledDataWithLists: "(dp0
Vcom.schriftgestaltung.Glyphs.lastChange
p1
V2019/11/18 23:05:38
p2
s."
EndChar

StartChar: numbersign_equal.liga
Encoding: 100 -1 100
GlifName: numbersign_equal.liga
Width: 1126
VWidth: 0
Flags: HW
LayerCount: 2
Fore
SplineSet
-350 0 m 257
 -174 0 l 257
 -54 1420 l 257
 -230 1420 l 257
 -350 0 l 257
-920 360 m 257
 80 360 l 257
 80 530 l 257
 -920 530 l 257
 -920 360 l 257
-786 0 m 257
 -610 0 l 257
 -490 1420 l 257
 -666 1420 l 257
 -786 0 l 257
-920 890 m 257
 80 890 l 257
 80 1060 l 257
 -920 1060 l 257
 -920 890 l 257
160 884 m 257
 920 884 l 257
 920 1060 l 257
 160 1060 l 257
 160 884 l 257
160 358 m 257
 920 358 l 257
 920 534 l 257
 160 534 l 257
 160 358 l 257
EndSplineSet
PickledDataWithLists: "(dp0
Vcom.schriftgestaltung.Glyphs.lastChange
p1
V2019/11/18 23:05:38
p2
s."
EndChar

StartChar: numbersign_exclam.liga
Encoding: 101 -1 101
GlifName: numbersign_exclam.liga
Width: 1126
VWidth: 0
Flags: HW
LayerCount: 2
Fore
SplineSet
524 456 m 257
 716 456 l 257
 726 1430 l 257
 518 1430 l 257
 524 456 l 257
622 -20 m 256
 704 -20 770 46 770 128 c 256
 770 210 704 276 622 276 c 256
 540 276 474 210 474 128 c 256
 474 46 540 -20 622 -20 c 256
-350 0 m 257
 -174 0 l 257
 -54 1420 l 257
 -230 1420 l 257
 -350 0 l 257
-920 360 m 257
 80 360 l 257
 80 530 l 257
 -920 530 l 257
 -920 360 l 257
-786 0 m 257
 -610 0 l 257
 -490 1420 l 257
 -666 1420 l 257
 -786 0 l 257
-920 890 m 257
 80 890 l 257
 80 1060 l 257
 -920 1060 l 257
 -920 890 l 257
EndSplineSet
PickledDataWithLists: "(dp0
Vcom.schriftgestaltung.Glyphs.lastChange
p1
V2019/11/18 23:05:38
p2
s."
EndChar

StartChar: numbersign_numbersign.liga
Encoding: 102 -1 102
GlifName: numbersign_numbersign.liga
Width: 1126
VWidth: 0
Flags: HW
LayerCount: 2
Fore
SplineSet
490 0 m 257
 666 0 l 257
 786 1420 l 257
 610 1420 l 257
 490 0 l 257
-80 360 m 257
 920 360 l 257
 920 530 l 257
 -80 530 l 257
 -80 360 l 257
54 0 m 257
 230 0 l 257
 350 1420 l 257
 174 1420 l 257
 54 0 l 257
-80 890 m 257
 920 890 l 257
 920 1060 l 257
 -80 1060 l 257
 -80 890 l 257
-350 0 m 257
 -174 0 l 257
 -54 1420 l 257
 -230 1420 l 257
 -350 0 l 257
-920 360 m 257
 80 360 l 257
 80 530 l 257
 -920 530 l 257
 -920 360 l 257
-786 0 m 257
 -610 0 l 257
 -490 1420 l 257
 -666 1420 l 257
 -786 0 l 257
-920 890 m 257
 80 890 l 257
 80 1060 l 257
 -920 1060 l 257
 -920 890 l 257
EndSplineSet
PickledDataWithLists: "(dp0
Vcom.schriftgestaltung.Glyphs.lastChange
p1
V2019/11/18 23:05:38
p2
s."
EndChar

StartChar: numbersign_parenleft.liga
Encoding: 103 -1 103
GlifName: numbersign_parenleft.liga
Width: 1126
VWidth: 0
Flags: HW
LayerCount: 2
Fore
SplineSet
930 -200 m 258
 978 -200 l 257
 958 -20 l 257
 950 -20 l 258
 634 -20 456 249 456 716 c 256
 456 1175 634 1440 950 1440 c 258
 958 1440 l 257
 978 1620 l 257
 930 1620 l 258
 496 1620 246 1291 246 716 c 256
 246 133 496 -200 930 -200 c 258
-350 0 m 257
 -174 0 l 257
 -54 1420 l 257
 -230 1420 l 257
 -350 0 l 257
-786 0 m 257
 -610 0 l 257
 -490 1420 l 257
 -666 1420 l 257
 -786 0 l 257
-920 360 m 257
 420 360 l 257
 420 530 l 257
 -920 530 l 257
 -920 360 l 257
-920 890 m 257
 420 890 l 257
 420 1060 l 257
 -920 1060 l 257
 -920 890 l 257
EndSplineSet
PickledDataWithLists: "(dp0
Vcom.schriftgestaltung.Glyphs.lastChange
p1
V2019/11/18 23:05:38
p2
s."
EndChar

StartChar: numbersign_question.liga
Encoding: 104 -1 104
GlifName: numbersign_question.liga
Width: 1126
VWidth: 0
Flags: HW
LayerCount: 2
Fore
SplineSet
518 -20 m 256
 600 -20 666 46 666 128 c 256
 666 210 600 276 518 276 c 256
 436 276 370 210 370 128 c 256
 370 46 436 -20 518 -20 c 256
416 456 m 257
 612 456 l 257
 612 538 l 258
 612 616 654 682 740 738 c 256
 888 834 962 960 962 1112 c 256
 962 1320 808 1440 542 1440 c 256
 258 1440 94 1288 94 1022 c 257
 296 1022 l 257
 296 1168 386 1250 540 1250 c 256
 668 1250 742 1196 742 1102 c 256
 742 1006 688 924 580 854 c 256
 470 784 416 684 416 552 c 258
 416 456 l 257
-920 360 m 257
 80 360 l 257
 80 530 l 257
 -920 530 l 257
 -920 360 l 257
-786 0 m 257
 -610 0 l 257
 -490 1420 l 257
 -666 1420 l 257
 -786 0 l 257
-350 0 m 257
 -174 0 l 257
 -54 1420 l 257
 -230 1420 l 257
 -350 0 l 257
-920 890 m 257
 296 890 l 257
 296 1060 l 257
 -920 1060 l 257
 -920 890 l 257
EndSplineSet
PickledDataWithLists: "(dp0
Vcom.schriftgestaltung.Glyphs.lastChange
p1
V2019/11/18 23:05:38
p2
s."
EndChar

StartChar: numbersign_underscore.liga
Encoding: 105 -1 105
GlifName: numbersign_underscore.liga
Width: 1126
VWidth: 0
Flags: HW
LayerCount: 2
Fore
SplineSet
-364 -176 m 257
 -188 -176 l 257
 -54 1420 l 257
 -230 1420 l 257
 -364 -176 l 257
-920 360 m 257
 80 360 l 257
 80 530 l 257
 -920 530 l 257
 -920 360 l 257
-786 0 m 257
 -610 0 l 257
 -490 1420 l 257
 -666 1420 l 257
 -786 0 l 257
-300 -176 m 257
 960 -176 l 257
 960 0 l 257
 -298 0 l 257
 -300 -176 l 257
-920 890 m 257
 80 890 l 257
 80 1060 l 257
 -920 1060 l 257
 -920 890 l 257
EndSplineSet
PickledDataWithLists: "(dp0
Vcom.schriftgestaltung.Glyphs.lastChange
p1
V2019/11/18 23:05:38
p2
s."
EndChar

StartChar: percent_percent.liga
Encoding: 106 -1 106
GlifName: percent_percent.liga
Width: 1126
VWidth: 0
Flags: HW
LayerCount: 2
Fore
SplineSet
-928 306 m 257
 166 1106 l 257
 74 1226 l 257
 -1020 432 l 257
 -928 306 l 257
-260 -20 m 256
 -72 -20 52 108 52 302 c 256
 52 498 -72 626 -260 626 c 256
 -450 626 -574 498 -574 302 c 256
 -574 108 -450 -20 -260 -20 c 256
-260 148 m 256
 -338 148 -388 210 -388 302 c 256
 -388 396 -338 458 -260 458 c 256
 -184 458 -134 396 -134 302 c 256
 -134 210 -184 148 -260 148 c 256
-746 794 m 256
 -558 794 -434 922 -434 1116 c 256
 -434 1316 -558 1440 -746 1440 c 256
 -936 1440 -1060 1312 -1060 1116 c 256
 -1060 922 -936 794 -746 794 c 256
-746 962 m 256
 -824 962 -874 1024 -874 1116 c 256
 -874 1212 -824 1274 -746 1274 c 256
 -670 1274 -620 1212 -620 1116 c 256
 -620 1024 -670 962 -746 962 c 256
784 -20 m 256
 972 -20 1096 108 1096 302 c 256
 1096 498 972 626 784 626 c 256
 594 626 470 498 470 302 c 256
 470 108 594 -20 784 -20 c 256
784 148 m 256
 706 148 656 210 656 302 c 256
 656 396 706 458 784 458 c 256
 860 458 910 396 910 302 c 256
 910 210 860 148 784 148 c 256
-16 210 m 257
 1046 986 l 257
 954 1106 l 257
 -108 336 l 257
 -16 210 l 257
298 794 m 256
 486 794 610 922 610 1116 c 256
 610 1316 486 1440 298 1440 c 256
 108 1440 -16 1312 -16 1116 c 256
 -16 922 108 794 298 794 c 256
298 962 m 256
 220 962 170 1024 170 1116 c 256
 170 1212 220 1274 298 1274 c 256
 374 1274 424 1212 424 1116 c 256
 424 1024 374 962 298 962 c 256
EndSplineSet
PickledDataWithLists: "(dp0
Vcom.schriftgestaltung.Glyphs.lastChange
p1
V2019/11/18 23:05:38
p2
s."
EndChar

StartChar: period_equal.liga
Encoding: 107 -1 107
GlifName: period_equal.liga
Width: 1126
VWidth: 0
Flags: HW
LayerCount: 2
Fore
SplineSet
-660 560 m 256
 -578 560 -512 626 -512 708 c 256
 -512 790 -578 856 -660 856 c 256
 -742 856 -808 790 -808 708 c 256
 -808 626 -742 560 -660 560 c 256
-100 866 m 257
 920 866 l 257
 920 1052 l 257
 -100 1052 l 257
 -100 866 l 257
-100 366 m 257
 920 366 l 257
 920 552 l 257
 -100 552 l 257
 -100 366 l 257
EndSplineSet
PickledDataWithLists: "(dp0
Vcom.schriftgestaltung.Glyphs.lastChange
p1
V2019/11/18 23:05:38
p2
s."
EndChar

StartChar: period_hyphen.liga
Encoding: 108 -1 108
GlifName: period_hyphen.liga
Width: 1126
VWidth: 0
Flags: HW
LayerCount: 2
Fore
SplineSet
-660 560 m 256
 -578 560 -512 626 -512 708 c 256
 -512 790 -578 856 -660 856 c 256
 -742 856 -808 790 -808 708 c 256
 -808 626 -742 560 -660 560 c 256
-180 614 m 257
 920 614 l 257
 920 800 l 257
 -180 800 l 257
 -180 614 l 257
EndSplineSet
PickledDataWithLists: "(dp0
Vcom.schriftgestaltung.Glyphs.lastChange
p1
V2019/11/18 23:05:38
p2
s."
EndChar

StartChar: period_period.liga
Encoding: 109 -1 109
GlifName: period_period.liga
Width: 1126
VWidth: 0
Flags: HW
LayerCount: 2
Fore
SplineSet
460 -20 m 256
 542 -20 608 46 608 128 c 256
 608 210 542 276 460 276 c 256
 378 276 312 210 312 128 c 256
 312 46 378 -20 460 -20 c 256
-460 -20 m 256
 -378 -20 -312 46 -312 128 c 256
 -312 210 -378 276 -460 276 c 256
 -542 276 -608 210 -608 128 c 256
 -608 46 -542 -20 -460 -20 c 256
EndSplineSet
PickledDataWithLists: "(dp0
Vcom.schriftgestaltung.Glyphs.lastChange
p1
V2019/11/18 23:05:38
p2
s."
EndChar

StartChar: period_period_equal.liga
Encoding: 110 -1 110
GlifName: period_period_equal.liga
Width: 1126
VWidth: 0
Flags: HW
LayerCount: 2
Fore
SplineSet
-1150 560 m 256
 -1068 560 -1002 626 -1002 708 c 256
 -1002 790 -1068 856 -1150 856 c 256
 -1232 856 -1298 790 -1298 708 c 256
 -1298 626 -1232 560 -1150 560 c 256
-1920 560 m 256
 -1838 560 -1772 626 -1772 708 c 256
 -1772 790 -1838 856 -1920 856 c 256
 -2002 856 -2068 790 -2068 708 c 256
 -2068 626 -2002 560 -1920 560 c 256
-500 866 m 257
 920 866 l 257
 920 1052 l 257
 -500 1052 l 257
 -500 866 l 257
-500 366 m 257
 920 366 l 257
 920 552 l 257
 -500 552 l 257
 -500 366 l 257
EndSplineSet
PickledDataWithLists: "(dp0
Vcom.schriftgestaltung.Glyphs.lastChange
p1
V2019/11/18 23:05:38
p2
s."
EndChar

StartChar: period_period_less.liga
Encoding: 111 -1 111
GlifName: period_period_less.liga
Width: 1126
VWidth: 0
Flags: HW
LayerCount: 2
Fore
SplineSet
-862 542 m 256
 -780 542 -714 608 -714 690 c 256
 -714 772 -780 838 -862 838 c 256
 -944 838 -1010 772 -1010 690 c 256
 -1010 608 -944 542 -862 542 c 256
-1860 542 m 256
 -1778 542 -1712 608 -1712 690 c 256
 -1712 772 -1778 838 -1860 838 c 256
 -1942 838 -2008 772 -2008 690 c 256
 -2008 608 -1942 542 -1860 542 c 256
920 214 m 257
 920 434 l 257
 60 700 l 257
 60 718 l 257
 920 984 l 257
 920 1204 l 257
 -218 810 l 257
 -218 608 l 257
 920 214 l 257
EndSplineSet
PickledDataWithLists: "(dp0
Vcom.schriftgestaltung.Glyphs.lastChange
p1
V2019/11/18 23:05:38
p2
s."
EndChar

StartChar: period_period_period.liga
Encoding: 112 -1 112
GlifName: period_period_period.liga
Width: 1126
VWidth: 0
Flags: HW
LayerCount: 2
Fore
SplineSet
200 -20 m 256
 282 -20 348 46 348 128 c 256
 348 210 282 276 200 276 c 256
 118 276 52 210 52 128 c 256
 52 46 118 -20 200 -20 c 256
-600 -20 m 256
 -518 -20 -452 46 -452 128 c 256
 -452 210 -518 276 -600 276 c 256
 -682 276 -748 210 -748 128 c 256
 -748 46 -682 -20 -600 -20 c 256
-1400 -20 m 256
 -1318 -20 -1252 46 -1252 128 c 256
 -1252 210 -1318 276 -1400 276 c 256
 -1482 276 -1548 210 -1548 128 c 256
 -1548 46 -1482 -20 -1400 -20 c 256
EndSplineSet
PickledDataWithLists: "(dp0
Vcom.schriftgestaltung.Glyphs.lastChange
p1
V2019/11/18 23:05:38
p2
s."
EndChar

StartChar: period_question.liga
Encoding: 113 -1 113
GlifName: period_question.liga
Width: 1126
VWidth: 0
Flags: HW
LayerCount: 2
Fore
SplineSet
260 456 m 257
 456 456 l 257
 456 538 l 258
 456 616 498 682 584 738 c 256
 732 833 806 954 806 1102 c 256
 806 1316 656 1440 396 1440 c 257
 394 1250 l 257
 516 1250 586 1192 586 1092 c 256
 586 1000 532 921 424 854 c 256
 314 784 260 684 260 552 c 258
 260 456 l 257
54 1078 m 257
 139 1182 269 1250 394 1250 c 257
 396 1440 l 257
 195 1440 9 1353 -84 1221 c 257
 54 1078 l 257
362 -20 m 256
 444 -20 510 46 510 128 c 256
 510 210 444 276 362 276 c 256
 280 276 214 210 214 128 c 256
 214 46 280 -20 362 -20 c 256
-500 -20 m 256
 -418 -20 -352 46 -352 128 c 256
 -352 210 -418 276 -500 276 c 256
 -582 276 -648 210 -648 128 c 256
 -648 46 -582 -20 -500 -20 c 256
EndSplineSet
PickledDataWithLists: "(dp0
Vcom.schriftgestaltung.Glyphs.lastChange
p1
V2019/11/18 23:05:38
p2
s."
EndChar

StartChar: plus_greater.liga
Encoding: 114 -1 114
GlifName: plus_greater.liga
Width: 1126
VWidth: 0
Flags: HW
LayerCount: 2
Fore
SplineSet
6 214 m 257
 964 608 l 257
 964 810 l 257
 6 1204 l 257
 6 984 l 257
 706 718 l 257
 706 700 l 257
 6 434 l 257
 6 214 l 257
-516 190 m 257
 -324 190 l 257
 -324 1228 l 257
 -516 1228 l 257
 -516 190 l 257
-920 617 m 257
 80 617 l 257
 80 803 l 257
 -920 803 l 257
 -920 617 l 257
EndSplineSet
PickledDataWithLists: "(dp0
Vcom.schriftgestaltung.Glyphs.lastChange
p1
V2019/11/18 23:05:38
p2
s."
EndChar

StartChar: plus_plus.liga
Encoding: 115 -1 115
GlifName: plus_plus.liga
Width: 1126
VWidth: 0
Flags: HW
LayerCount: 2
Fore
SplineSet
364 190 m 257
 556 190 l 257
 556 1228 l 257
 364 1228 l 257
 364 190 l 257
-40 617 m 257
 960 617 l 257
 960 803 l 257
 -40 803 l 257
 -40 617 l 257
-556 190 m 257
 -364 190 l 257
 -364 1228 l 257
 -556 1228 l 257
 -556 190 l 257
-960 617 m 257
 40 617 l 257
 40 803 l 257
 -960 803 l 257
 -960 617 l 257
EndSplineSet
PickledDataWithLists: "(dp0
Vcom.schriftgestaltung.Glyphs.lastChange
p1
V2019/11/18 23:05:38
p2
s."
EndChar

StartChar: plus_plus_plus.liga
Encoding: 116 -1 116
GlifName: plus_plus_plus.liga
Width: 1126
VWidth: 0
Flags: HW
LayerCount: 2
Fore
SplineSet
-696 190 m 257
 -504 190 l 257
 -504 1228 l 257
 -696 1228 l 257
 -696 190 l 257
-1100 617 m 257
 -100 617 l 257
 -100 803 l 257
 -1100 803 l 257
 -1100 617 l 257
324 190 m 257
 516 190 l 257
 516 1228 l 257
 324 1228 l 257
 324 190 l 257
-80 617 m 257
 920 617 l 257
 920 803 l 257
 -80 803 l 257
 -80 617 l 257
-1716 190 m 257
 -1524 190 l 257
 -1524 1228 l 257
 -1716 1228 l 257
 -1716 190 l 257
-2120 617 m 257
 -1120 617 l 257
 -1120 803 l 257
 -2120 803 l 257
 -2120 617 l 257
-539 617 m 257
 346 617 l 257
 346 803 l 257
 -539 803 l 257
 -539 617 l 257
-1539 617 m 257
 -654 617 l 257
 -654 803 l 257
 -1539 803 l 257
 -1539 617 l 257
EndSplineSet
PickledDataWithLists: "(dp0
Vcom.schriftgestaltung.Glyphs.lastChange
p1
V2019/11/18 23:05:38
p2
s."
EndChar

StartChar: question_colon.liga
Encoding: 117 -1 117
GlifName: question_colon.liga
Width: 1126
VWidth: 0
Flags: HW
LayerCount: 2
Fore
SplineSet
500 784 m 256
 582 784 648 850 648 932 c 256
 648 1014 582 1080 500 1080 c 256
 418 1080 352 1014 352 932 c 256
 352 850 418 784 500 784 c 256
500 -20 m 256
 582 -20 648 46 648 128 c 256
 648 210 582 276 500 276 c 256
 418 276 352 210 352 128 c 256
 352 46 418 -20 500 -20 c 256
-460 456 m 257
 -264 456 l 257
 -264 538 l 258
 -264 616 -222 682 -136 738 c 256
 12 833 86 954 86 1102 c 256
 86 1316 -64 1440 -324 1440 c 257
 -326 1250 l 257
 -204 1250 -134 1192 -134 1092 c 256
 -134 1000 -188 921 -296 854 c 256
 -406 784 -460 684 -460 552 c 258
 -460 456 l 257
-666 1078 m 257
 -581 1182 -451 1250 -326 1250 c 257
 -324 1440 l 257
 -525 1440 -711 1353 -804 1221 c 257
 -666 1078 l 257
-358 -20 m 256
 -276 -20 -210 46 -210 128 c 256
 -210 210 -276 276 -358 276 c 256
 -440 276 -506 210 -506 128 c 256
 -506 46 -440 -20 -358 -20 c 256
EndSplineSet
PickledDataWithLists: "(dp0
Vcom.schriftgestaltung.Glyphs.lastChange
p1
V2019/11/18 23:05:38
p2
s."
EndChar

StartChar: question_equal.liga
Encoding: 118 -1 118
GlifName: question_equal.liga
Width: 1126
VWidth: 0
Flags: HW
LayerCount: 2
Fore
SplineSet
-658 456 m 257
 -462 456 l 257
 -462 538 l 258
 -462 616 -420 682 -334 738 c 256
 -186 833 -112 954 -112 1102 c 256
 -112 1316 -262 1440 -522 1440 c 257
 -524 1250 l 257
 -402 1250 -332 1192 -332 1092 c 256
 -332 1000 -386 921 -494 854 c 256
 -604 784 -658 684 -658 552 c 258
 -658 456 l 257
-864 1078 m 257
 -779 1182 -649 1250 -524 1250 c 257
 -522 1440 l 257
 -723 1440 -909 1353 -1002 1221 c 257
 -864 1078 l 257
-556 -20 m 256
 -474 -20 -408 46 -408 128 c 256
 -408 210 -474 276 -556 276 c 256
 -638 276 -704 210 -704 128 c 256
 -704 46 -638 -20 -556 -20 c 256
-98 406 m 257
 920 406 l 257
 920 592 l 257
 -98 592 l 257
 -98 406 l 257
-44 886 m 257
 920 886 l 257
 920 1072 l 257
 20 1072 l 257
 10 1014 -14 940 -44 886 c 257
EndSplineSet
PickledDataWithLists: "(dp0
Vcom.schriftgestaltung.Glyphs.lastChange
p1
V2019/11/18 23:07:02
p2
s."
EndChar

StartChar: question_period.liga
Encoding: 119 -1 119
GlifName: question_period.liga
Width: 1126
VWidth: 0
Flags: HW
LayerCount: 2
Fore
SplineSet
500 -20 m 256
 582 -20 648 46 648 128 c 256
 648 210 582 276 500 276 c 256
 418 276 352 210 352 128 c 256
 352 46 418 -20 500 -20 c 256
-460 456 m 257
 -264 456 l 257
 -264 538 l 258
 -264 616 -222 682 -136 738 c 256
 12 833 86 954 86 1102 c 256
 86 1316 -64 1440 -324 1440 c 257
 -326 1250 l 257
 -204 1250 -134 1192 -134 1092 c 256
 -134 1000 -188 921 -296 854 c 256
 -406 784 -460 684 -460 552 c 258
 -460 456 l 257
-666 1078 m 257
 -581 1182 -451 1250 -326 1250 c 257
 -324 1440 l 257
 -525 1440 -711 1353 -804 1221 c 257
 -666 1078 l 257
-358 -20 m 256
 -276 -20 -210 46 -210 128 c 256
 -210 210 -276 276 -358 276 c 256
 -440 276 -506 210 -506 128 c 256
 -506 46 -440 -20 -358 -20 c 256
EndSplineSet
PickledDataWithLists: "(dp0
Vcom.schriftgestaltung.Glyphs.lastChange
p1
V2019/11/18 23:05:38
p2
s."
EndChar

StartChar: question_question.liga
Encoding: 120 -1 120
GlifName: question_question.liga
Width: 1126
VWidth: 0
Flags: HW
LayerCount: 2
Fore
SplineSet
330 456 m 257
 526 456 l 257
 526 538 l 258
 526 616 568 682 654 738 c 256
 802 833 876 954 876 1102 c 256
 876 1316 726 1440 466 1440 c 257
 464 1250 l 257
 586 1250 656 1192 656 1092 c 256
 656 1000 602 921 494 854 c 256
 384 784 330 684 330 552 c 258
 330 456 l 257
124 1078 m 257
 209 1182 339 1250 464 1250 c 257
 466 1440 l 257
 265 1440 79 1353 -14 1221 c 257
 124 1078 l 257
432 -20 m 256
 514 -20 580 46 580 128 c 256
 580 210 514 276 432 276 c 256
 350 276 284 210 284 128 c 256
 284 46 350 -20 432 -20 c 256
-614 456 m 257
 -418 456 l 257
 -418 538 l 258
 -418 616 -376 682 -290 738 c 256
 -142 833 -68 954 -68 1102 c 256
 -68 1316 -218 1440 -478 1440 c 257
 -480 1250 l 257
 -358 1250 -288 1192 -288 1092 c 256
 -288 1000 -342 921 -450 854 c 256
 -560 784 -614 684 -614 552 c 258
 -614 456 l 257
-820 1078 m 257
 -735 1182 -605 1250 -480 1250 c 257
 -478 1440 l 257
 -679 1440 -865 1353 -958 1221 c 257
 -820 1078 l 257
-512 -20 m 256
 -430 -20 -364 46 -364 128 c 256
 -364 210 -430 276 -512 276 c 256
 -594 276 -660 210 -660 128 c 256
 -660 46 -594 -20 -512 -20 c 256
EndSplineSet
PickledDataWithLists: "(dp0
Vcom.schriftgestaltung.Glyphs.lastChange
p1
V2019/11/18 23:05:38
p2
s."
EndChar

StartChar: semicolon_semicolon.liga
Encoding: 121 -1 121
GlifName: semicolon_semicolon.liga
Width: 1126
VWidth: 0
Flags: HW
LayerCount: 2
Fore
SplineSet
484 784 m 256
 566 784 632 850 632 932 c 256
 632 1014 566 1080 484 1080 c 256
 402 1080 336 1014 336 932 c 256
 336 850 402 784 484 784 c 256
286 -436 m 257
 478 -436 l 257
 598 254 l 257
 366 254 l 257
 286 -436 l 257
-434 784 m 256
 -352 784 -286 850 -286 932 c 256
 -286 1014 -352 1080 -434 1080 c 256
 -516 1080 -582 1014 -582 932 c 256
 -582 850 -516 784 -434 784 c 256
-632 -436 m 257
 -440 -436 l 257
 -320 254 l 257
 -552 254 l 257
 -632 -436 l 257
EndSplineSet
PickledDataWithLists: "(dp0
Vcom.schriftgestaltung.Glyphs.lastChange
p1
V2019/11/18 23:05:38
p2
s."
EndChar

StartChar: slash_asterisk.liga
Encoding: 122 -1 122
GlifName: slash_asterisk.liga
Width: 1126
VWidth: 0
Flags: HW
LayerCount: 2
Fore
SplineSet
766 258 m 257
 932 398 l 257
 596 744 l 257
 484 648 l 257
 766 258 l 257
314 258 m 257
 596 648 l 257
 484 744 l 257
 148 398 l 257
 314 258 l 257
514 626 m 257
 566 766 l 257
 126 962 l 257
 52 758 l 257
 514 626 l 257
466 696 m 257
 614 696 l 257
 648 1176 l 257
 432 1176 l 257
 466 696 l 257
566 626 m 257
 1028 758 l 257
 954 962 l 257
 514 766 l 257
 566 626 l 257
-976 -190 m 257
 -764 -190 l 257
 40 1610 l 257
 -172 1610 l 257
 -976 -190 l 257
EndSplineSet
PickledDataWithLists: "(dp0
Vcom.schriftgestaltung.Glyphs.lastChange
p1
V2019/11/18 23:05:38
p2
s."
EndChar

StartChar: slash_equal.liga
Encoding: 123 -1 123
GlifName: slash_equal.liga
Width: 1126
VWidth: 0
Flags: HW
LayerCount: 2
Fore
SplineSet
-976 -190 m 257
 -764 -190 l 257
 40 1610 l 257
 -172 1610 l 257
 -976 -190 l 257
-308 366 m 257
 922 366 l 257
 922 552 l 257
 -218 552 l 257
 -308 366 l 257
-78 866 m 257
 922 866 l 257
 922 1052 l 257
 12 1052 l 257
 -78 866 l 257
EndSplineSet
PickledDataWithLists: "(dp0
Vcom.schriftgestaltung.Glyphs.lastChange
p1
V2019/11/18 23:05:38
p2
s."
EndChar

StartChar: slash_equal_equal.liga
Encoding: 124 -1 124
GlifName: slash_equal_equal.liga
Width: 1126
VWidth: 0
Flags: HW
LayerCount: 2
Fore
SplineSet
-2176 -190 m 257
 -1964 -190 l 257
 -1160 1610 l 257
 -1372 1610 l 257
 -2176 -190 l 257
-1508 366 m 257
 -278 366 l 257
 -278 552 l 257
 -1418 552 l 257
 -1508 366 l 257
-1278 866 m 257
 -278 866 l 257
 -278 1052 l 257
 -1188 1052 l 257
 -1278 866 l 257
-120 366 m 257
 920 366 l 257
 920 552 l 257
 -120 552 l 257
 -120 366 l 257
-120 866 m 257
 920 866 l 257
 920 1052 l 257
 -120 1052 l 257
 -120 866 l 257
EndSplineSet
PickledDataWithLists: "(dp0
Vcom.schriftgestaltung.Glyphs.lastChange
p1
V2019/11/18 23:05:38
p2
s."
EndChar

StartChar: slash_greater.liga
Encoding: 125 -1 125
GlifName: slash_greater.liga
Width: 1126
VWidth: 0
Flags: HW
LayerCount: 2
Fore
SplineSet
-976 -190 m 257
 -764 -190 l 257
 40 1610 l 257
 -172 1610 l 257
 -976 -190 l 257
48 214 m 257
 1006 608 l 257
 1006 810 l 257
 -226 1317 l 257
 -226 1102 l 257
 748 718 l 257
 748 700 l 257
 48 434 l 257
 48 214 l 257
EndSplineSet
PickledDataWithLists: "(dp0
Vcom.schriftgestaltung.Glyphs.lastChange
p1
V2019/11/18 23:05:38
p2
s."
EndChar

StartChar: slash_slash.liga
Encoding: 126 -1 126
GlifName: slash_slash.liga
Width: 1126
VWidth: 0
Flags: HW
LayerCount: 2
Fore
SplineSet
-44 -190 m 257
 168 -190 l 257
 972 1610 l 257
 760 1610 l 257
 -44 -190 l 257
-926 -190 m 257
 -714 -190 l 257
 90 1610 l 257
 -122 1610 l 257
 -926 -190 l 257
EndSplineSet
PickledDataWithLists: "(dp0
Vcom.schriftgestaltung.Glyphs.lastChange
p1
V2019/11/18 23:05:38
p2
s."
EndChar

StartChar: slash_slash_slash.liga
Encoding: 127 -1 127
GlifName: slash_slash_slash.liga
Width: 1126
VWidth: 0
Flags: HW
LayerCount: 2
Fore
SplineSet
-1066 -190 m 257
 -854 -190 l 257
 -50 1610 l 257
 -262 1610 l 257
 -1066 -190 l 257
-2086 -190 m 257
 -1874 -190 l 257
 -1070 1610 l 257
 -1282 1610 l 257
 -2086 -190 l 257
-76 -190 m 257
 136 -190 l 257
 940 1610 l 257
 728 1610 l 257
 -76 -190 l 257
EndSplineSet
PickledDataWithLists: "(dp0
Vcom.schriftgestaltung.Glyphs.lastChange
p1
V2019/11/18 23:05:38
p2
s."
EndChar

StartChar: tilde_tilde_greater.liga
Encoding: 128 -1 128
GlifName: tilde_tilde_greater.liga
Width: 1126
VWidth: 0
Flags: HW
LayerCount: 2
Fore
SplineSet
6 112 m 257
 960 648 l 257
 960 770 l 257
 6 1304 l 257
 6 1064 l 257
 438 876 534 850 588 846 c 257
 588 570 l 257
 538 566 450 526 6 352 c 257
 6 112 l 257
-2020 556 m 256
 -1778 556 -1826 674 -1558 674 c 256
 -1368 674 -1312 556 -1084 556 c 256
 -938 556 -782 674 -678 674 c 256
 -508 674 -472 556 -236 556 c 256
 16 556 30 674 260 674 c 256
 398 674 464 614 600 614 c 257
 600 802 l 257
 500 802 424 862 256 862 c 256
 28 862 -28 744 -218 744 c 256
 -446 744 -478 862 -680 862 c 256
 -852 862 -918 744 -1080 744 c 256
 -1310 744 -1324 862 -1576 862 c 256
 -1812 862 -1848 744 -2018 744 c 256
 -2038 744 -2074 746 -2092 756 c 257
 -2144 596 l 257
 -2110 561 -2058 556 -2020 556 c 256
EndSplineSet
PickledDataWithLists: "(dp0
Vcom.schriftgestaltung.Glyphs.lastChange
p1
V2019/11/18 23:07:02
p2
s."
EndChar

StartChar: underscore_bar_underscore.liga
Encoding: 129 -1 129
GlifName: underscore_bar_underscore.liga
Width: 1126
VWidth: 0
Flags: HW
LayerCount: 2
Fore
SplineSet
-2120 -176 m 257
 920 -176 l 257
 920 0 l 257
 -2120 0 l 257
 -2120 -176 l 257
-700 -120 m 257
 -500 -120 l 257
 -500 1760 l 257
 -700 1760 l 257
 -700 -120 l 257
EndSplineSet
PickledDataWithLists: "(dp0
Vcom.schriftgestaltung.Glyphs.lastChange
p1
V2019/11/18 23:05:38
p2
s."
EndChar

StartChar: underscore_underscore.liga
Encoding: 130 -1 130
GlifName: underscore_underscore.liga
Width: 1126
VWidth: 0
Flags: HW
LayerCount: 2
Fore
SplineSet
-920 -176 m 257
 920 -176 l 257
 920 0 l 257
 -920 0 l 257
 -920 -176 l 257
EndSplineSet
PickledDataWithLists: "(dp0
Vcom.schriftgestaltung.Glyphs.lastChange
p1
V2019/11/18 23:05:38
p2
s."
EndChar

StartChar: w_w_w.liga
Encoding: 131 -1 131
GlifName: w_w_w.liga
Width: 1126
VWidth: 0
Flags: HW
LayerCount: 2
Fore
SplineSet
730 0 m 257
 1020 0 l 257
 1130 1060 l 257
 930 1060 l 257
 850 160 l 257
 830 160 l 257
 676 940 l 257
 456 940 l 257
 522 742 l 257
 572 742 l 257
 730 0 l 257
-2220 0 m 257
 -1930 0 l 257
 -1772 742 l 257
 -1742 742 l 257
 -1656 940 l 257
 -1876 940 l 257
 -2030 160 l 257
 -2050 160 l 257
 -2130 1060 l 257
 -2330 1060 l 257
 -2220 0 l 257
-1612 0 m 257
 -1472 0 l 257
 -1472 160 l 257
 -1492 160 l 257
 -1656 940 l 257
 -1876 940 l 257
 -1810 742 l 257
 -1760 742 l 257
 -1612 0 l 257
-1492 0 m 257
 -1352 0 l 257
 -1194 742 l 257
 -1164 742 l 257
 -1078 940 l 257
 -1298 940 l 257
 -1472 160 l 257
 -1492 160 l 257
 -1492 0 l 257
-1034 0 m 257
 -894 0 l 257
 -894 160 l 257
 -914 160 l 257
 -1078 940 l 257
 -1298 940 l 257
 -1232 742 l 257
 -1182 742 l 257
 -1034 0 l 257
-914 0 m 257
 -774 0 l 257
 -606 742 l 257
 -576 742 l 257
 -490 940 l 257
 -710 940 l 257
 -894 160 l 257
 -914 160 l 257
 -914 0 l 257
-426 0 m 257
 -286 0 l 257
 -286 160 l 257
 -306 160 l 257
 -490 940 l 257
 -710 940 l 257
 -644 742 l 257
 -594 742 l 257
 -426 0 l 257
-306 0 m 257
 -166 0 l 257
 -18 742 l 257
 12 742 l 257
 98 940 l 257
 -122 940 l 257
 -286 160 l 257
 -306 160 l 257
 -306 0 l 257
152 0 m 257
 292 0 l 257
 292 160 l 257
 272 160 l 257
 98 940 l 257
 -122 940 l 257
 -56 742 l 257
 -6 742 l 257
 152 0 l 257
272 0 m 257
 412 0 l 257
 560 742 l 257
 590 742 l 257
 676 940 l 257
 456 940 l 257
 292 160 l 257
 272 160 l 257
 272 0 l 257
EndSplineSet
PickledDataWithLists: "(dp0
Vcom.schriftgestaltung.Glyphs.glyph.rightMetricsKey
p1
Vw
p2
sVcom.schriftgestaltung.Glyphs.lastChange
p3
V2019/11/18 23:05:38
p4
s."
EndChar

StartChar: zero.dnom
Encoding: 132 -1 132
GlifName: zero.dnom
Width: 1126
VWidth: 0
Flags: HW
LayerCount: 2
Fore
SplineSet
578 -20 m 256
 766 -20 890 110 890 307 c 256
 890 505 766 628 578 628 c 256
 388 628 264 501 264 307 c 256
 264 110 388 -20 578 -20 c 256
578 143 m 256
 497 143 445 209 445 307 c 256
 445 403 497 465 578 465 c 256
 657 465 709 403 709 307 c 256
 709 209 657 143 578 143 c 256
EndSplineSet
EndChar

StartChar: one.dnom
Encoding: 133 -1 133
GlifName: one.dnom
Width: 1126
VWidth: 0
Flags: HW
LayerCount: 2
Fore
SplineSet
541 0 m 257
 697 0 l 257
 697 620 l 257
 541 620 l 257
 541 0 l 257
342 0 m 257
 549 0 l 257
 549 141 l 257
 342 141 l 257
 342 0 l 257
688 0 m 257
 860 0 l 257
 860 141 l 257
 688 141 l 257
 688 0 l 257
351 409 m 257
 541 460 l 257
 541 620 l 257
 351 567 l 257
 351 409 l 257
EndSplineSet
EndChar

StartChar: two.dnom
Encoding: 134 -1 134
GlifName: two.dnom
Width: 1126
VWidth: 0
Flags: HW
LayerCount: 2
Fore
SplineSet
342 -1 m 257
 588 -1 l 257
 588 152 l 257
 752 240 832 335 832 439 c 256
 832 558 730 637 574 637 c 256
 469 637 376 613 317 569 c 257
 383 431 l 257
 435 461 490 477 537 477 c 256
 605 477 639 445 639 384 c 256
 639 304 541 226 342 156 c 257
 342 -1 l 257
368 -1 m 257
 858 -1 l 257
 858 139 l 257
 368 139 l 257
 368 -1 l 257
EndSplineSet
EndChar

StartChar: three.dnom
Encoding: 135 -1 135
GlifName: three.dnom
Width: 1126
VWidth: 0
Flags: HW
LayerCount: 2
Fore
SplineSet
554 -20 m 256
 740 -18 847 51 847 175 c 256
 847 265 770 317 656 327 c 258
 483 342 l 257
 483 246 l 257
 547 246 l 258
 628 246 674 227 674 194 c 256
 674 154 625 131 540 131 c 256
 472 131 418 144 377 152 c 257
 336 6 l 257
 393 -11 467 -21 554 -20 c 256
483 246 m 257
 681 276 l 257
 681 348 l 257
 770 366 830 420 830 489 c 256
 830 578 738 627 574 627 c 256
 490 627 414 618 348 597 c 257
 369 448 l 257
 420 467 477 477 544 477 c 256
 616 477 656 458 656 428 c 256
 656 396 602 371 473 362 c 257
 483 246 l 257
EndSplineSet
EndChar

StartChar: four.dnom
Encoding: 136 -1 136
GlifName: four.dnom
Width: 1126
VWidth: 0
Flags: HW
LayerCount: 2
Fore
SplineSet
321 106 m 257
 485 106 l 257
 563 585 l 257
 399 585 l 257
 321 106 l 257
320 106 m 257
 650 106 l 257
 650 246 l 257
 382 246 l 257
 320 106 l 257
788 106 m 257
 866 106 l 257
 866 246 l 257
 788 246 l 257
 788 106 l 257
641 0 m 257
 797 0 l 257
 797 618 l 257
 641 618 l 257
 641 0 l 257
EndSplineSet
EndChar

StartChar: five.dnom
Encoding: 137 -1 137
GlifName: five.dnom
Width: 1126
VWidth: 0
Flags: HW
LayerCount: 2
Fore
SplineSet
602 -20 m 256
 775 -20 874 60 874 199 c 256
 874 312 788 377 637 377 c 256
 587 377 537 365 498 345 c 257
 490 233 l 257
 521 252 556 261 592 261 c 256
 653 261 688 237 688 194 c 256
 688 150 657 124 603 124 c 256
 554 124 527 142 527 174 c 257
 336 174 l 257
 336 51 433 -20 602 -20 c 256
362 233 m 257
 490 233 l 257
 541 326 l 257
 555 607 l 257
 371 607 l 257
 362 233 l 257
482 467 m 257
 836 467 l 257
 836 607 l 257
 474 607 l 257
 482 467 l 257
EndSplineSet
EndChar

StartChar: six.dnom
Encoding: 138 -1 138
GlifName: six.dnom
Width: 1126
VWidth: 0
Flags: HW
LayerCount: 2
Fore
SplineSet
451 146 m 257
 501 291 l 257
 501 422 593 480 810 486 c 257
 802 627 l 257
 467 615 324 501 324 247 c 258
 324 226 l 257
 451 146 l 257
609 -20 m 256
 782 -20 880 58 880 193 c 256
 880 312 809 380 682 380 c 256
 594 380 529 348 509 292 c 257
 478 292 l 257
 448 156 l 257
 324 226 l 257
 324 69 427 -20 609 -20 c 256
604 110 m 256
 537 110 500 135 500 185 c 256
 500 234 538 262 604 262 c 256
 669 262 704 235 704 188 c 256
 704 138 669 110 604 110 c 256
EndSplineSet
EndChar

StartChar: seven.dnom
Encoding: 139 -1 139
GlifName: seven.dnom
Width: 1126
VWidth: 0
Flags: HW
LayerCount: 2
Fore
SplineSet
557 0 m 257
 723 0 l 257
 899 618 l 257
 732 618 l 257
 557 0 l 257
354 323 m 257
 510 323 l 257
 510 604 l 257
 354 604 l 257
 354 323 l 257
354 479 m 257
 836 479 l 257
 899 618 l 257
 354 618 l 257
 354 479 l 257
EndSplineSet
EndChar

StartChar: eight.dnom
Encoding: 140 -1 140
GlifName: eight.dnom
Width: 1126
VWidth: 0
Flags: HW
LayerCount: 2
Fore
SplineSet
599 -20 m 256
 774 -20 875 48 875 165 c 256
 875 270 774 329 599 329 c 256
 425 329 324 270 324 165 c 256
 324 48 425 -20 599 -20 c 256
599 98 m 256
 546 98 516 128 516 182 c 256
 516 233 546 263 599 263 c 256
 653 263 683 233 683 182 c 256
 683 128 653 98 599 98 c 256
529 304 m 257
 671 304 l 257
 671 348 l 257
 529 348 l 257
 529 304 l 257
599 381 m 256
 557 381 533 405 533 445 c 256
 533 485 557 508 599 508 c 256
 642 508 666 485 666 445 c 256
 666 405 642 381 599 381 c 256
599 321 m 256
 763 321 858 377 858 473 c 256
 858 570 763 626 599 626 c 256
 436 626 341 570 341 473 c 256
 341 377 436 321 599 321 c 256
EndSplineSet
EndChar

StartChar: nine.dnom
Encoding: 141 -1 141
GlifName: nine.dnom
Width: 1126
VWidth: 0
Flags: HW
LayerCount: 2
Fore
SplineSet
402 -16 m 257
 737 -4 880 108 880 359 c 258
 880 380 l 257
 753 460 l 257
 703 315 l 257
 703 187 611 131 394 125 c 257
 402 -16 l 257
600 344 m 256
 535 344 500 371 500 418 c 256
 500 468 535 496 600 496 c 256
 667 496 704 471 704 421 c 256
 704 372 666 344 600 344 c 256
522 226 m 256
 610 226 675 258 695 314 c 257
 726 314 l 257
 756 450 l 257
 880 380 l 257
 880 537 777 626 595 626 c 256
 422 626 324 548 324 413 c 256
 324 294 395 226 522 226 c 256
EndSplineSet
EndChar

StartChar: zero.numr
Encoding: 142 -1 142
GlifName: zero.numr
Width: 1126
VWidth: 0
Flags: HW
LayerCount: 2
Fore
SplineSet
578 792 m 256
 766 792 890 922 890 1119 c 256
 890 1317 766 1440 578 1440 c 256
 388 1440 264 1313 264 1119 c 256
 264 922 388 792 578 792 c 256
578 955 m 256
 497 955 445 1021 445 1119 c 256
 445 1215 497 1277 578 1277 c 256
 657 1277 709 1215 709 1119 c 256
 709 1021 657 955 578 955 c 256
EndSplineSet
EndChar

StartChar: one.numr
Encoding: 143 -1 143
GlifName: one.numr
Width: 1126
VWidth: 0
Flags: HW
LayerCount: 2
Fore
SplineSet
541 802 m 257
 697 802 l 257
 697 1422 l 257
 541 1422 l 257
 541 802 l 257
342 802 m 257
 549 802 l 257
 549 943 l 257
 342 943 l 257
 342 802 l 257
688 802 m 257
 860 802 l 257
 860 943 l 257
 688 943 l 257
 688 802 l 257
351 1211 m 257
 541 1262 l 257
 541 1422 l 257
 351 1369 l 257
 351 1211 l 257
EndSplineSet
EndChar

StartChar: two.numr
Encoding: 144 -1 144
GlifName: two.numr
Width: 1126
VWidth: 0
Flags: HW
LayerCount: 2
Fore
SplineSet
342 802 m 257
 588 802 l 257
 588 955 l 257
 752 1043 832 1138 832 1242 c 256
 832 1361 730 1440 574 1440 c 256
 469 1440 376 1416 317 1372 c 257
 383 1234 l 257
 435 1264 490 1280 537 1280 c 256
 605 1280 639 1248 639 1187 c 256
 639 1107 541 1029 342 959 c 257
 342 802 l 257
368 802 m 257
 858 802 l 257
 858 942 l 257
 368 942 l 257
 368 802 l 257
EndSplineSet
EndChar

StartChar: three.numr
Encoding: 145 -1 145
GlifName: three.numr
Width: 1126
VWidth: 0
Flags: HW
LayerCount: 2
Fore
SplineSet
554 793 m 256
 740 795 847 864 847 988 c 256
 847 1078 770 1130 656 1140 c 258
 483 1155 l 257
 483 1059 l 257
 547 1059 l 258
 628 1059 674 1040 674 1007 c 256
 674 967 625 944 540 944 c 256
 472 944 418 957 377 965 c 257
 336 819 l 257
 393 802 467 792 554 793 c 256
483 1059 m 257
 681 1089 l 257
 681 1161 l 257
 770 1179 830 1233 830 1302 c 256
 830 1391 738 1440 574 1440 c 256
 490 1440 414 1431 348 1410 c 257
 369 1261 l 257
 420 1280 477 1290 544 1290 c 256
 616 1290 656 1271 656 1241 c 256
 656 1209 602 1184 473 1175 c 257
 483 1059 l 257
EndSplineSet
EndChar

StartChar: four.numr
Encoding: 146 -1 146
GlifName: four.numr
Width: 1126
VWidth: 0
Flags: HW
LayerCount: 2
Fore
SplineSet
321 908 m 257
 485 908 l 257
 563 1387 l 257
 399 1387 l 257
 321 908 l 257
320 908 m 257
 650 908 l 257
 650 1048 l 257
 382 1048 l 257
 320 908 l 257
788 908 m 257
 866 908 l 257
 866 1048 l 257
 788 1048 l 257
 788 908 l 257
641 802 m 257
 797 802 l 257
 797 1420 l 257
 641 1420 l 257
 641 802 l 257
EndSplineSet
EndChar

StartChar: five.numr
Encoding: 147 -1 147
GlifName: five.numr
Width: 1126
VWidth: 0
Flags: HW
LayerCount: 2
Fore
SplineSet
602 793 m 256
 775 793 874 873 874 1012 c 256
 874 1125 788 1190 637 1190 c 256
 587 1190 537 1178 498 1158 c 257
 490 1046 l 257
 521 1065 556 1074 592 1074 c 256
 653 1074 688 1050 688 1007 c 256
 688 963 657 937 603 937 c 256
 554 937 527 955 527 987 c 257
 336 987 l 257
 336 864 433 793 602 793 c 256
362 1046 m 257
 490 1046 l 257
 541 1139 l 257
 555 1420 l 257
 371 1420 l 257
 362 1046 l 257
482 1280 m 257
 836 1280 l 257
 836 1420 l 257
 474 1420 l 257
 482 1280 l 257
EndSplineSet
EndChar

StartChar: six.numr
Encoding: 148 -1 148
GlifName: six.numr
Width: 1126
VWidth: 0
Flags: HW
LayerCount: 2
Fore
SplineSet
451 959 m 257
 501 1104 l 257
 501 1235 593 1293 810 1299 c 257
 802 1440 l 257
 467 1428 324 1314 324 1060 c 258
 324 1039 l 257
 451 959 l 257
609 793 m 256
 782 793 880 871 880 1006 c 256
 880 1125 809 1193 682 1193 c 256
 594 1193 529 1161 509 1105 c 257
 478 1105 l 257
 448 969 l 257
 324 1039 l 257
 324 882 427 793 609 793 c 256
604 923 m 256
 537 923 500 948 500 998 c 256
 500 1047 538 1075 604 1075 c 256
 669 1075 704 1048 704 1001 c 256
 704 951 669 923 604 923 c 256
EndSplineSet
EndChar

StartChar: seven.numr
Encoding: 149 -1 149
GlifName: seven.numr
Width: 1126
VWidth: 0
Flags: HW
LayerCount: 2
Fore
SplineSet
557 802 m 257
 723 802 l 257
 899 1420 l 257
 732 1420 l 257
 557 802 l 257
354 1125 m 257
 510 1125 l 257
 510 1406 l 257
 354 1406 l 257
 354 1125 l 257
354 1281 m 257
 836 1281 l 257
 899 1420 l 257
 354 1420 l 257
 354 1281 l 257
EndSplineSet
EndChar

StartChar: eight.numr
Encoding: 150 -1 150
GlifName: eight.numr
Width: 1126
VWidth: 0
Flags: HW
LayerCount: 2
Fore
SplineSet
599 793 m 256
 774 793 875 861 875 978 c 256
 875 1083 774 1142 599 1142 c 256
 425 1142 324 1083 324 978 c 256
 324 861 425 793 599 793 c 256
599 911 m 256
 546 911 516 941 516 995 c 256
 516 1046 546 1076 599 1076 c 256
 653 1076 683 1046 683 995 c 256
 683 941 653 911 599 911 c 256
529 1117 m 257
 671 1117 l 257
 671 1161 l 257
 529 1161 l 257
 529 1117 l 257
599 1194 m 256
 557 1194 533 1218 533 1258 c 256
 533 1298 557 1321 599 1321 c 256
 642 1321 666 1298 666 1258 c 256
 666 1218 642 1194 599 1194 c 256
599 1134 m 256
 763 1134 858 1190 858 1286 c 256
 858 1383 763 1439 599 1439 c 256
 436 1439 341 1383 341 1286 c 256
 341 1190 436 1134 599 1134 c 256
EndSplineSet
EndChar

StartChar: nine.numr
Encoding: 151 -1 151
GlifName: nine.numr
Width: 1126
VWidth: 0
Flags: HW
LayerCount: 2
Fore
SplineSet
402 798 m 257
 737 810 880 922 880 1173 c 258
 880 1194 l 257
 753 1274 l 257
 703 1129 l 257
 703 1001 611 945 394 939 c 257
 402 798 l 257
600 1158 m 256
 535 1158 500 1185 500 1232 c 256
 500 1282 535 1310 600 1310 c 256
 667 1310 704 1285 704 1235 c 256
 704 1186 666 1158 600 1158 c 256
522 1040 m 256
 610 1040 675 1072 695 1128 c 257
 726 1128 l 257
 756 1264 l 257
 880 1194 l 257
 880 1351 777 1440 595 1440 c 256
 422 1440 324 1362 324 1227 c 256
 324 1108 395 1040 522 1040 c 256
EndSplineSet
EndChar

StartChar: zeroinferior
Encoding: 152 -1 152
GlifName: zeroinferior
Width: 1126
VWidth: 0
Flags: HW
LayerCount: 2
Fore
SplineSet
578 -20 m 256
 766 -20 890 110 890 307 c 256
 890 505 766 628 578 628 c 256
 388 628 264 501 264 307 c 256
 264 110 388 -20 578 -20 c 256
578 143 m 256
 497 143 445 209 445 307 c 256
 445 403 497 465 578 465 c 256
 657 465 709 403 709 307 c 256
 709 209 657 143 578 143 c 256
EndSplineSet
EndChar

StartChar: oneinferior
Encoding: 153 -1 153
GlifName: oneinferior
Width: 1126
VWidth: 0
Flags: HW
LayerCount: 2
Fore
SplineSet
541 0 m 257
 697 0 l 257
 697 620 l 257
 541 620 l 257
 541 0 l 257
342 0 m 257
 549 0 l 257
 549 141 l 257
 342 141 l 257
 342 0 l 257
688 0 m 257
 860 0 l 257
 860 141 l 257
 688 141 l 257
 688 0 l 257
351 409 m 257
 541 460 l 257
 541 620 l 257
 351 567 l 257
 351 409 l 257
EndSplineSet
EndChar

StartChar: twoinferior
Encoding: 154 -1 154
GlifName: twoinferior
Width: 1126
VWidth: 0
Flags: HW
LayerCount: 2
Fore
SplineSet
342 -1 m 257
 588 -1 l 257
 588 152 l 257
 752 240 832 335 832 439 c 256
 832 558 730 637 574 637 c 256
 469 637 376 613 317 569 c 257
 383 431 l 257
 435 461 490 477 537 477 c 256
 605 477 639 445 639 384 c 256
 639 304 541 226 342 156 c 257
 342 -1 l 257
368 -1 m 257
 858 -1 l 257
 858 139 l 257
 368 139 l 257
 368 -1 l 257
EndSplineSet
EndChar

StartChar: threeinferior
Encoding: 155 -1 155
GlifName: threeinferior
Width: 1126
VWidth: 0
Flags: HW
LayerCount: 2
Fore
SplineSet
554 -20 m 256
 740 -18 847 51 847 175 c 256
 847 265 770 317 656 327 c 258
 483 342 l 257
 483 246 l 257
 547 246 l 258
 628 246 674 227 674 194 c 256
 674 154 625 131 540 131 c 256
 472 131 418 144 377 152 c 257
 336 6 l 257
 393 -11 467 -21 554 -20 c 256
483 246 m 257
 681 276 l 257
 681 348 l 257
 770 366 830 420 830 489 c 256
 830 578 738 627 574 627 c 256
 490 627 414 618 348 597 c 257
 369 448 l 257
 420 467 477 477 544 477 c 256
 616 477 656 458 656 428 c 256
 656 396 602 371 473 362 c 257
 483 246 l 257
EndSplineSet
EndChar

StartChar: fourinferior
Encoding: 156 -1 156
GlifName: fourinferior
Width: 1126
VWidth: 0
Flags: HW
LayerCount: 2
Fore
SplineSet
321 106 m 257
 485 106 l 257
 563 585 l 257
 399 585 l 257
 321 106 l 257
320 106 m 257
 650 106 l 257
 650 246 l 257
 382 246 l 257
 320 106 l 257
788 106 m 257
 866 106 l 257
 866 246 l 257
 788 246 l 257
 788 106 l 257
641 0 m 257
 797 0 l 257
 797 618 l 257
 641 618 l 257
 641 0 l 257
EndSplineSet
EndChar

StartChar: fiveinferior
Encoding: 157 -1 157
GlifName: fiveinferior
Width: 1126
VWidth: 0
Flags: HW
LayerCount: 2
Fore
SplineSet
602 -20 m 256
 775 -20 874 60 874 199 c 256
 874 312 788 377 637 377 c 256
 587 377 537 365 498 345 c 257
 490 233 l 257
 521 252 556 261 592 261 c 256
 653 261 688 237 688 194 c 256
 688 150 657 124 603 124 c 256
 554 124 527 142 527 174 c 257
 336 174 l 257
 336 51 433 -20 602 -20 c 256
362 233 m 257
 490 233 l 257
 541 326 l 257
 555 607 l 257
 371 607 l 257
 362 233 l 257
482 467 m 257
 836 467 l 257
 836 607 l 257
 474 607 l 257
 482 467 l 257
EndSplineSet
EndChar

StartChar: sixinferior
Encoding: 158 -1 158
GlifName: sixinferior
Width: 1126
VWidth: 0
Flags: HW
LayerCount: 2
Fore
SplineSet
451 146 m 257
 501 291 l 257
 501 422 593 480 810 486 c 257
 802 627 l 257
 467 615 324 501 324 247 c 258
 324 226 l 257
 451 146 l 257
609 -20 m 256
 782 -20 880 58 880 193 c 256
 880 312 809 380 682 380 c 256
 594 380 529 348 509 292 c 257
 478 292 l 257
 448 156 l 257
 324 226 l 257
 324 69 427 -20 609 -20 c 256
604 110 m 256
 537 110 500 135 500 185 c 256
 500 234 538 262 604 262 c 256
 669 262 704 235 704 188 c 256
 704 138 669 110 604 110 c 256
EndSplineSet
EndChar

StartChar: seveninferior
Encoding: 159 -1 159
GlifName: seveninferior
Width: 1126
VWidth: 0
Flags: HW
LayerCount: 2
Fore
SplineSet
557 0 m 257
 723 0 l 257
 899 618 l 257
 732 618 l 257
 557 0 l 257
354 323 m 257
 510 323 l 257
 510 604 l 257
 354 604 l 257
 354 323 l 257
354 479 m 257
 836 479 l 257
 899 618 l 257
 354 618 l 257
 354 479 l 257
EndSplineSet
EndChar

StartChar: eightinferior
Encoding: 160 -1 160
GlifName: eightinferior
Width: 1126
VWidth: 0
Flags: HW
LayerCount: 2
Fore
SplineSet
599 -20 m 256
 774 -20 875 48 875 165 c 256
 875 270 774 329 599 329 c 256
 425 329 324 270 324 165 c 256
 324 48 425 -20 599 -20 c 256
599 98 m 256
 546 98 516 128 516 182 c 256
 516 233 546 263 599 263 c 256
 653 263 683 233 683 182 c 256
 683 128 653 98 599 98 c 256
529 304 m 257
 671 304 l 257
 671 348 l 257
 529 348 l 257
 529 304 l 257
599 381 m 256
 557 381 533 405 533 445 c 256
 533 485 557 508 599 508 c 256
 642 508 666 485 666 445 c 256
 666 405 642 381 599 381 c 256
599 321 m 256
 763 321 858 377 858 473 c 256
 858 570 763 626 599 626 c 256
 436 626 341 570 341 473 c 256
 341 377 436 321 599 321 c 256
EndSplineSet
EndChar

StartChar: nineinferior
Encoding: 161 -1 161
GlifName: nineinferior
Width: 1126
VWidth: 0
Flags: HW
LayerCount: 2
Fore
SplineSet
402 -16 m 257
 737 -4 880 108 880 359 c 258
 880 380 l 257
 753 460 l 257
 703 315 l 257
 703 187 611 131 394 125 c 257
 402 -16 l 257
600 344 m 256
 535 344 500 371 500 418 c 256
 500 468 535 496 600 496 c 256
 667 496 704 471 704 421 c 256
 704 372 666 344 600 344 c 256
522 226 m 256
 610 226 675 258 695 314 c 257
 726 314 l 257
 756 450 l 257
 880 380 l 257
 880 537 777 626 595 626 c 256
 422 626 324 548 324 413 c 256
 324 294 395 226 522 226 c 256
EndSplineSet
EndChar

StartChar: zerosuperior
Encoding: 162 -1 162
GlifName: zerosuperior
Width: 1126
VWidth: 0
Flags: HW
LayerCount: 2
Fore
SplineSet
578 792 m 256
 766 792 890 922 890 1119 c 256
 890 1317 766 1440 578 1440 c 256
 388 1440 264 1313 264 1119 c 256
 264 922 388 792 578 792 c 256
578 955 m 256
 497 955 445 1021 445 1119 c 256
 445 1215 497 1277 578 1277 c 256
 657 1277 709 1215 709 1119 c 256
 709 1021 657 955 578 955 c 256
EndSplineSet
EndChar

StartChar: onesuperior
Encoding: 163 -1 163
GlifName: onesuperior
Width: 1126
VWidth: 0
Flags: HW
LayerCount: 2
Fore
SplineSet
541 802 m 257
 697 802 l 257
 697 1422 l 257
 541 1422 l 257
 541 802 l 257
342 802 m 257
 549 802 l 257
 549 943 l 257
 342 943 l 257
 342 802 l 257
688 802 m 257
 860 802 l 257
 860 943 l 257
 688 943 l 257
 688 802 l 257
351 1211 m 257
 541 1262 l 257
 541 1422 l 257
 351 1369 l 257
 351 1211 l 257
EndSplineSet
EndChar

StartChar: twosuperior
Encoding: 164 -1 164
GlifName: twosuperior
Width: 1126
VWidth: 0
Flags: HW
LayerCount: 2
Fore
SplineSet
342 802 m 257
 588 802 l 257
 588 955 l 257
 752 1043 832 1138 832 1242 c 256
 832 1361 730 1440 574 1440 c 256
 469 1440 376 1416 317 1372 c 257
 383 1234 l 257
 435 1264 490 1280 537 1280 c 256
 605 1280 639 1248 639 1187 c 256
 639 1107 541 1029 342 959 c 257
 342 802 l 257
368 802 m 257
 858 802 l 257
 858 942 l 257
 368 942 l 257
 368 802 l 257
EndSplineSet
EndChar

StartChar: threesuperior
Encoding: 165 -1 165
GlifName: threesuperior
Width: 1126
VWidth: 0
Flags: HW
LayerCount: 2
Fore
SplineSet
554 793 m 256
 740 795 847 864 847 988 c 256
 847 1078 770 1130 656 1140 c 258
 483 1155 l 257
 483 1059 l 257
 547 1059 l 258
 628 1059 674 1040 674 1007 c 256
 674 967 625 944 540 944 c 256
 472 944 418 957 377 965 c 257
 336 819 l 257
 393 802 467 792 554 793 c 256
483 1059 m 257
 681 1089 l 257
 681 1161 l 257
 770 1179 830 1233 830 1302 c 256
 830 1391 738 1440 574 1440 c 256
 490 1440 414 1431 348 1410 c 257
 369 1261 l 257
 420 1280 477 1290 544 1290 c 256
 616 1290 656 1271 656 1241 c 256
 656 1209 602 1184 473 1175 c 257
 483 1059 l 257
EndSplineSet
EndChar

StartChar: foursuperior
Encoding: 166 -1 166
GlifName: foursuperior
Width: 1126
VWidth: 0
Flags: HW
LayerCount: 2
Fore
SplineSet
321 908 m 257
 485 908 l 257
 563 1387 l 257
 399 1387 l 257
 321 908 l 257
320 908 m 257
 650 908 l 257
 650 1048 l 257
 382 1048 l 257
 320 908 l 257
788 908 m 257
 866 908 l 257
 866 1048 l 257
 788 1048 l 257
 788 908 l 257
641 802 m 257
 797 802 l 257
 797 1420 l 257
 641 1420 l 257
 641 802 l 257
EndSplineSet
EndChar

StartChar: fivesuperior
Encoding: 167 -1 167
GlifName: fivesuperior
Width: 1126
VWidth: 0
Flags: HW
LayerCount: 2
Fore
SplineSet
602 793 m 256
 775 793 874 873 874 1012 c 256
 874 1125 788 1190 637 1190 c 256
 587 1190 537 1178 498 1158 c 257
 490 1046 l 257
 521 1065 556 1074 592 1074 c 256
 653 1074 688 1050 688 1007 c 256
 688 963 657 937 603 937 c 256
 554 937 527 955 527 987 c 257
 336 987 l 257
 336 864 433 793 602 793 c 256
362 1046 m 257
 490 1046 l 257
 541 1139 l 257
 555 1420 l 257
 371 1420 l 257
 362 1046 l 257
482 1280 m 257
 836 1280 l 257
 836 1420 l 257
 474 1420 l 257
 482 1280 l 257
EndSplineSet
EndChar

StartChar: sixsuperior
Encoding: 168 -1 168
GlifName: sixsuperior
Width: 1126
VWidth: 0
Flags: HW
LayerCount: 2
Fore
SplineSet
451 959 m 257
 501 1104 l 257
 501 1235 593 1293 810 1299 c 257
 802 1440 l 257
 467 1428 324 1314 324 1060 c 258
 324 1039 l 257
 451 959 l 257
609 793 m 256
 782 793 880 871 880 1006 c 256
 880 1125 809 1193 682 1193 c 256
 594 1193 529 1161 509 1105 c 257
 478 1105 l 257
 448 969 l 257
 324 1039 l 257
 324 882 427 793 609 793 c 256
604 923 m 256
 537 923 500 948 500 998 c 256
 500 1047 538 1075 604 1075 c 256
 669 1075 704 1048 704 1001 c 256
 704 951 669 923 604 923 c 256
EndSplineSet
EndChar

StartChar: sevensuperior
Encoding: 169 -1 169
GlifName: sevensuperior
Width: 1126
VWidth: 0
Flags: HW
LayerCount: 2
Fore
SplineSet
557 0 m 257
 723 0 l 257
 899 618 l 257
 732 618 l 257
 557 0 l 257
354 323 m 257
 510 323 l 257
 510 604 l 257
 354 604 l 257
 354 323 l 257
354 479 m 257
 836 479 l 257
 899 618 l 257
 354 618 l 257
 354 479 l 257
EndSplineSet
EndChar

StartChar: eightsuperior
Encoding: 170 -1 170
GlifName: eightsuperior
Width: 1126
VWidth: 0
Flags: HW
LayerCount: 2
Fore
SplineSet
599 793 m 256
 774 793 875 861 875 978 c 256
 875 1083 774 1142 599 1142 c 256
 425 1142 324 1083 324 978 c 256
 324 861 425 793 599 793 c 256
599 911 m 256
 546 911 516 941 516 995 c 256
 516 1046 546 1076 599 1076 c 256
 653 1076 683 1046 683 995 c 256
 683 941 653 911 599 911 c 256
529 1117 m 257
 671 1117 l 257
 671 1161 l 257
 529 1161 l 257
 529 1117 l 257
599 1194 m 256
 557 1194 533 1218 533 1258 c 256
 533 1298 557 1321 599 1321 c 256
 642 1321 666 1298 666 1258 c 256
 666 1218 642 1194 599 1194 c 256
599 1134 m 256
 763 1134 858 1190 858 1286 c 256
 858 1383 763 1439 599 1439 c 256
 436 1439 341 1383 341 1286 c 256
 341 1190 436 1134 599 1134 c 256
EndSplineSet
EndChar

StartChar: ninesuperior
Encoding: 171 -1 171
GlifName: ninesuperior
Width: 1126
VWidth: 0
Flags: HW
LayerCount: 2
Fore
SplineSet
402 798 m 257
 737 810 880 922 880 1173 c 258
 880 1194 l 257
 753 1274 l 257
 703 1129 l 257
 703 1001 611 945 394 939 c 257
 402 798 l 257
600 1158 m 256
 535 1158 500 1185 500 1232 c 256
 500 1282 535 1310 600 1310 c 256
 667 1310 704 1285 704 1235 c 256
 704 1186 666 1158 600 1158 c 256
522 1040 m 256
 610 1040 675 1072 695 1128 c 257
 726 1128 l 257
 756 1264 l 257
 880 1194 l 257
 880 1351 777 1440 595 1440 c 256
 422 1440 324 1362 324 1227 c 256
 324 1108 395 1040 522 1040 c 256
EndSplineSet
EndChar

StartChar: zero.zero
Encoding: 172 -1 172
GlifName: zero.zero
Width: 1126
VWidth: 0
Flags: HW
LayerCount: 2
Fore
SplineSet
600 -20 m 256
 922 -20 1084 218 1084 700 c 256
 1084 1194 922 1440 600 1440 c 256
 278 1440 116 1194 116 700 c 256
 116 218 278 -20 600 -20 c 256
312 232 m 257
 970 1040 l 257
 872 1120 l 257
 230 338 l 257
 312 232 l 257
600 164 m 256
 420 164 330 342 330 700 c 256
 330 1072 420 1256 600 1256 c 256
 780 1256 870 1072 870 700 c 256
 870 342 780 164 600 164 c 256
EndSplineSet
EndChar

StartChar: x.multiply
Encoding: 173 -1 173
Width: 1126
VWidth: 0
Flags: HW
LayerCount: 2
Fore
SplineSet
249 188 m 257
 121 309 l 257
 951 1188 l 257
 1079 1065 l 257
 249 188 l 257
951 188 m 257
 121 1065 l 257
 249 1188 l 257
 1079 309 l 257
 951 188 l 257
EndSplineSet
EndChar
